<svg width="38" height="37" viewBox="0 0 38 37" fill="none" xmlns="http://www.w3.org/2000/svg">
<path d="M27.48 32.6489L27.3566 32.4314C27.3472 32.4367 27.3378 32.442 27.328 32.4474C27.3158 32.4541 27.3032 32.461 27.29 32.4682C27.278 32.4747 27.2655 32.4815 27.2527 32.4886C27.241 32.495 27.2291 32.5016 27.2172 32.5083C26.8448 32.7151 26.4677 32.9096 26.0843 33.0842L26.0842 33.0842C26.0435 33.1028 26.0017 33.1205 25.9572 33.1388L25.9572 33.1387L25.95 33.1419C25.5584 33.3181 25.161 33.48 24.7576 33.6246L24.7568 33.6248C24.7395 33.6311 24.7218 33.6371 24.701 33.6441C24.682 33.6505 24.6599 33.658 24.638 33.6661C24.2274 33.8095 23.812 33.9389 23.3922 34.0498C23.3914 34.05 23.3906 34.0502 23.3898 34.0504L23.2919 34.0741L23.2886 34.075C22.8569 34.186 22.4219 34.2814 21.9827 34.3579L21.982 34.358C21.9582 34.3622 21.9488 34.3628 21.9105 34.3686L21.9069 34.3693C21.4602 34.445 21.01 34.5038 20.5571 34.5431L20.5258 34.543L20.5153 34.543L20.5048 34.5439C20.0347 34.5829 19.5648 34.6036 19.0897 34.6029C18.6131 34.6023 18.1395 34.5842 17.6718 34.5441L17.6613 34.5432L17.6508 34.5432L17.6194 34.5432C17.167 34.503 16.7176 34.443 16.2715 34.3664C16.2561 34.3637 16.241 34.3615 16.2298 34.3598L16.2261 34.3593C16.213 34.3574 16.2049 34.3561 16.198 34.3548L16.1946 34.3542C15.756 34.2768 15.3216 34.1808 14.8911 34.0687L14.8892 34.0683L14.787 34.0425C14.7864 34.0424 14.7859 34.0422 14.7854 34.0421C14.367 33.9304 13.9526 33.8006 13.5438 33.6564L13.5436 33.6563C13.5146 33.6461 13.4954 33.6398 13.4782 33.6341C13.459 33.6278 13.4422 33.6222 13.417 33.613L13.4161 33.6127C13.0162 33.4683 12.6227 33.3062 12.2345 33.1306L12.2318 33.1294C12.2164 33.1226 12.2019 33.1163 12.188 33.1103C12.1537 33.0954 12.1229 33.0821 12.0908 33.067L12.0883 33.0659C11.7106 32.8942 11.3388 32.7001 10.972 32.4945L10.9713 32.4942C10.919 32.4651 10.8662 32.436 10.8146 32.4076C10.4563 32.2022 10.1058 31.9817 9.76119 31.7485C9.7286 31.7262 9.70493 31.7104 9.68223 31.6952C9.6582 31.6791 9.63525 31.6637 9.60391 31.6421C9.26657 31.4072 8.93738 31.1576 8.61631 30.8961L8.62242 26.0934C8.63094 22.694 11.4496 19.9343 14.9349 19.9347L23.2761 19.9458C26.7614 19.9545 29.5729 22.7217 29.5728 26.1211L29.5667 30.9209C29.2425 31.1846 28.9101 31.4341 28.5687 31.6699C28.5419 31.6882 28.5202 31.7026 28.497 31.7179C28.4771 31.731 28.4562 31.7448 28.4302 31.7624L28.4298 31.7627C28.0805 31.9995 27.7226 32.2224 27.3559 32.4318L27.48 32.6489ZM27.48 32.6489C27.8521 32.4363 28.2154 32.2101 28.5701 31.9696L26.1879 33.3117C26.5789 33.1336 26.9623 32.9359 27.3393 32.7265C27.3618 32.7138 27.3845 32.7014 27.4073 32.689C27.4316 32.6758 27.4559 32.6625 27.48 32.6489ZM22.2125 36.0098L22.213 36.0097L22.4007 35.9775L22.403 35.9771C31.605 34.3084 38.002 26.0506 37.1521 16.9149C36.3023 7.77994 28.4878 0.788852 19.13 0.773607L19.1299 0.773607L18.8799 0.7732L18.8799 0.774932C8.98962 0.892855 0.994365 8.77356 0.981969 18.4997C0.969468 28.3076 9.07946 36.2604 19.0846 36.2736C19.6305 36.2743 20.1743 36.2511 20.7156 36.2041C21.2197 36.1605 21.7185 36.0936 22.2125 36.0098ZM26.0526 33.3699C25.6555 33.5485 25.252 33.7129 24.8419 33.8599C24.8226 33.8669 24.8033 33.8734 24.7843 33.8799C24.7631 33.887 24.7424 33.894 24.7226 33.9013C24.3052 34.0472 23.882 34.1791 23.4536 34.2922L26.0526 33.3699ZM31.2645 26.123L31.2645 26.1227C31.2649 21.7937 27.6875 18.2899 23.2788 18.2791L23.2785 18.2791L14.9367 18.2681L14.9364 18.2681C10.5276 18.2673 6.94137 21.7616 6.93074 26.0906L6.93074 26.0908L6.92664 29.3082C1.04921 22.9647 1.2731 13.1652 7.53926 7.08781C13.9561 0.86454 24.3034 0.878206 30.7044 7.1184C36.955 13.2123 37.1539 23.0124 31.2604 29.3403L31.2645 26.123Z" fill="#323232" stroke="#323232" stroke-width="0.5"/>
<path d="M19.1243 5.44027L19.124 5.44027C15.7002 5.43575 12.9122 8.15064 12.9079 11.5154C12.9036 14.8802 15.6847 17.6024 19.1085 17.6069C22.5323 17.6114 25.3204 14.8966 25.3246 11.5318L25.3246 11.5315C25.3253 8.16841 22.5465 5.44835 19.1243 5.44027ZM19.1104 15.9403C16.6108 15.9368 14.5965 13.9519 14.5996 11.5176C14.6027 9.08325 16.6222 7.10364 19.1219 7.10694C21.6214 7.11024 23.6359 9.09502 23.633 11.5293C23.6271 13.9625 21.6087 15.9409 19.1104 15.9403Z" fill="#323232" stroke="#323232" stroke-width="0.5"/>
</svg>
