<svg width="33" height="29" viewBox="0 0 33 29" fill="none" xmlns="http://www.w3.org/2000/svg">
<rect x="1.48682" y="1" width="29.8117" height="26.7241" stroke="white" stroke-width="2"/>
<path d="M18.0432 28.3271H14.221C13.5825 28.3271 13.0632 27.8228 13.0632 27.2029V18.8313H10.8332C10.1948 18.8313 9.67548 18.3268 9.67548 17.7071V14.1198C9.67548 13.4999 10.1948 12.9956 10.8332 12.9956H13.0632V11.1992C13.0632 9.41805 13.6392 7.90267 14.7287 6.81714C15.8231 5.72666 17.3525 5.15039 19.1516 5.15039L22.0666 5.15499C22.704 5.15605 23.2224 5.66035 23.2224 6.27924V9.60991C23.2224 10.2299 22.7032 10.7342 22.065 10.7342L20.1023 10.7349C19.5038 10.7349 19.3514 10.8514 19.3188 10.8871C19.2651 10.9463 19.2011 11.1138 19.2011 11.5762V12.9954H21.9175C22.122 12.9954 22.3201 13.0444 22.4904 13.1367C22.8577 13.336 23.086 13.7128 23.086 14.12L23.0845 17.7072C23.0845 18.3268 22.5652 18.8311 21.9268 18.8311H19.2011V27.2029C19.2011 27.8228 18.6816 28.3271 18.0432 28.3271V28.3271ZM14.4624 26.9684H17.8017V18.223C17.8017 17.8091 18.1486 17.4724 18.5747 17.4724H21.6853L21.6866 14.3543H18.5746C18.1484 14.3543 17.8017 14.0176 17.8017 13.6037V11.5762C17.8017 11.0454 17.8573 10.4417 18.2699 9.98796C18.7685 9.43945 19.5542 9.37615 20.102 9.37615L21.8232 9.37544V6.51335L19.1505 6.50911C16.2592 6.50911 14.4624 8.30636 14.4624 11.1992V13.6037C14.4624 14.0174 14.1157 14.3543 13.6896 14.3543H11.0747V17.4724H13.6896C14.1157 17.4724 14.4624 17.8091 14.4624 18.223V26.9684ZM22.0639 6.51371H22.0641H22.0639Z" fill="white"/>
</svg>
