<svg width="38" height="36" viewBox="0 0 38 36" fill="none" xmlns="http://www.w3.org/2000/svg">
<path d="M18.9321 35.0249C18.3952 35.0242 17.8779 34.8206 17.475 34.4515C15.9533 33.0598 14.4862 31.752 13.1919 30.5983L13.1853 30.5923C9.39037 27.2098 6.11335 24.2887 3.83433 21.4125C1.28673 18.197 0.10209 15.1499 0.106331 11.8228C0.11045 8.59032 1.17676 5.60953 3.10863 3.42915C5.06355 1.223 7.74366 0.0100663 10.6561 0.0139127C12.8329 0.0167874 14.8256 0.737356 16.5785 2.15544C17.4631 2.87124 18.2647 3.74691 18.9706 4.76802C19.6794 3.74878 20.4829 2.87523 21.3697 2.16176C23.1262 0.748318 25.1207 0.0330152 27.2975 0.03589C30.2097 0.039736 32.887 1.25974 34.8363 3.47105C36.7626 5.65652 37.821 8.64012 37.8169 11.8726C37.8126 15.1997 36.6205 18.2436 34.0647 21.4521C31.7784 24.3226 28.4942 27.2347 24.6913 30.6069C23.3917 31.7589 21.919 33.065 20.3903 34.4559C19.9868 34.8234 19.4686 35.0256 18.9321 35.0249ZM10.6532 2.31839C8.36506 2.31537 6.26184 3.26524 4.73046 4.99323C3.17633 6.7473 2.31845 9.17371 2.31507 11.8257C2.3115 14.624 3.30522 17.1278 5.53685 19.9443C7.69379 22.6667 10.9036 25.5277 14.62 28.8405L14.6269 28.8465C15.9261 30.0046 17.399 31.3176 18.9318 32.7195C20.4775 31.319 21.956 30.0078 23.2607 28.8513C26.9853 25.5484 30.2021 22.6965 32.366 19.9797C34.6045 17.1692 35.6046 14.6679 35.6081 11.8697C35.6115 9.21768 34.7598 6.78901 33.2102 5.03084C31.6835 3.29881 29.5824 2.34339 27.2946 2.34037C25.6184 2.33815 24.0787 2.89198 22.7185 3.9863C21.5062 4.96196 20.6611 6.19622 20.1654 7.05997C19.9105 7.50415 19.4625 7.76888 18.9668 7.76822C18.4711 7.76757 18.0237 7.50165 17.77 7.05681C17.2768 6.19175 16.4348 4.95526 15.2248 3.9764C13.8673 2.8785 12.3291 2.3206 10.6532 2.31839Z" fill="#323232"/>
</svg>
