<svg width="33" height="29" viewBox="0 0 33 29" fill="none" xmlns="http://www.w3.org/2000/svg">
<rect x="1.61163" y="1" width="29.8117" height="26.7241" stroke="white" stroke-width="2"/>
<path d="M16.5737 23.2749C21.3045 23.2749 25.1534 19.6167 25.1534 15.1204C25.1534 10.624 21.3045 6.96582 16.5737 6.96582C11.8429 6.96582 7.99397 10.624 7.99397 15.1204C7.99397 19.6167 11.8429 23.2749 16.5737 23.2749ZM16.5737 8.77794C20.2534 8.77794 23.2468 11.6231 23.2468 15.1204C23.2468 18.6177 20.2534 21.4628 16.5737 21.4628C12.8941 21.4628 9.90058 18.6177 9.90058 15.1204C9.90058 11.6231 12.8941 8.77794 16.5737 8.77794Z" fill="white"/>
<path d="M25.1535 8.58398C26.6474 8.58398 27.8629 7.42872 27.8629 6.00879C27.8629 4.58885 26.6474 3.43359 25.1535 3.43359C23.6596 3.43359 22.4441 4.58885 22.4441 6.00879C22.4441 7.42872 23.6596 8.58398 25.1535 8.58398ZM25.1535 5.15039C25.6514 5.15039 26.0566 5.53555 26.0566 6.00879C26.0566 6.48203 25.6514 6.86719 25.1535 6.86719C24.6556 6.86719 24.2504 6.48203 24.2504 6.00879C24.2504 5.53555 24.6556 5.15039 25.1535 5.15039Z" fill="white"/>
</svg>
