<svg width="240" height="81" viewBox="0 0 240 81" fill="none" xmlns="http://www.w3.org/2000/svg">
<path d="M51.0703 27.8672C51.1953 27.9141 51.3281 27.9557 51.4688 27.9922C51.6146 28.0286 51.7578 28.0599 51.8984 28.0859C52.0443 28.1068 52.1849 28.1276 52.3203 28.1484C52.4609 28.1641 52.5859 28.1745 52.6953 28.1797C52.8932 27.5755 53.1406 27.013 53.4375 26.4922C53.7344 25.9714 54.0573 25.4974 54.4062 25.0703C54.7604 24.6432 55.1302 24.2656 55.5156 23.9375C55.9062 23.6094 56.2917 23.3333 56.6719 23.1094C57.0573 22.8802 57.4271 22.7083 57.7812 22.5938C58.1406 22.4792 58.4688 22.4219 58.7656 22.4219C59.1458 22.4219 59.4505 22.5208 59.6797 22.7188C59.9141 22.9167 60.0312 23.224 60.0312 23.6406C60.0312 23.8854 59.9609 24.1589 59.8203 24.4609C59.6849 24.763 59.4896 25.0755 59.2344 25.3984C58.9792 25.7161 58.6693 26.0365 58.3047 26.3594C57.9401 26.6823 57.5286 26.9896 57.0703 27.2812C56.6172 27.5677 56.1198 27.8307 55.5781 28.0703C55.0417 28.3047 54.474 28.4948 53.875 28.6406C53.6406 29.276 53.3984 29.9245 53.1484 30.5859C52.8984 31.2422 52.6328 31.8984 52.3516 32.5547C52.0703 33.2057 51.7656 33.8438 51.4375 34.4688C51.1146 35.0938 50.7552 35.6901 50.3594 36.2578C50.8229 36.6693 51.2812 37.0729 51.7344 37.4688C52.1927 37.8698 52.6589 38.2266 53.1328 38.5391C53.6068 38.8516 54.0964 39.1016 54.6016 39.2891C55.1068 39.4818 55.6406 39.5781 56.2031 39.5781C56.8177 39.5781 57.474 39.4427 58.1719 39.1719C58.8698 38.901 59.6276 38.4479 60.4453 37.8125C60.9974 37.4479 61.4557 37.1797 61.8203 37.0078C62.1849 36.8359 62.4505 36.75 62.6172 36.75C62.7474 36.75 62.8125 36.7995 62.8125 36.8984C62.8125 37.0391 62.6615 37.2734 62.3594 37.6016C62.0625 37.9349 61.5911 38.3542 60.9453 38.8594C60.5078 39.2135 60.0885 39.5156 59.6875 39.7656C59.2917 40.0156 58.9062 40.2188 58.5312 40.375C58.1615 40.5312 57.8047 40.6458 57.4609 40.7188C57.1172 40.7917 56.7865 40.8281 56.4688 40.8281C55.8385 40.8281 55.2422 40.7057 54.6797 40.4609C54.1172 40.2214 53.5729 39.9089 53.0469 39.5234C52.5208 39.138 52 38.7057 51.4844 38.2266C50.974 37.7474 50.4531 37.2682 49.9219 36.7891C49.5781 37.1953 49.2109 37.5651 48.8203 37.8984C48.4297 38.237 48.0104 38.526 47.5625 38.7656C47.1198 39.0104 46.6458 39.1979 46.1406 39.3281C45.6406 39.4635 45.1068 39.5312 44.5391 39.5312C43.8828 39.5312 43.3125 39.4375 42.8281 39.25C42.3438 39.0625 41.9427 38.8151 41.625 38.5078C41.3125 38.2005 41.0781 37.849 40.9219 37.4531C40.7708 37.0625 40.6953 36.6641 40.6953 36.2578C40.6953 35.8568 40.7682 35.4635 40.9141 35.0781C41.0599 34.6927 41.2734 34.3516 41.5547 34.0547C41.8359 33.7526 42.1849 33.5104 42.6016 33.3281C43.0182 33.1458 43.4974 33.0547 44.0391 33.0547C44.5703 33.0547 45.0729 33.1172 45.5469 33.2422C46.0208 33.3672 46.4766 33.5365 46.9141 33.75C47.3516 33.9583 47.7708 34.2031 48.1719 34.4844C48.5729 34.7656 48.9635 35.0625 49.3438 35.375C49.6458 34.8594 49.9349 34.3229 50.2109 33.7656C50.4922 33.2031 50.763 32.6328 51.0234 32.0547C51.2891 31.4766 51.5469 30.8958 51.7969 30.3125C52.0521 29.7292 52.3047 29.1562 52.5547 28.5938C52.4453 28.5938 52.3229 28.5911 52.1875 28.5859C52.0521 28.5755 51.9115 28.5651 51.7656 28.5547C51.6198 28.5443 51.474 28.5312 51.3281 28.5156C51.1875 28.4948 51.0547 28.4714 50.9297 28.4453C50.6953 28.4036 50.4531 28.375 50.2031 28.3594C49.9583 28.3385 49.7266 28.3021 49.5078 28.25C49.2891 28.1927 49.0911 28.1068 48.9141 27.9922C48.7422 27.8724 48.6094 27.6953 48.5156 27.4609C48.474 27.362 48.4531 27.2656 48.4531 27.1719C48.4531 27.099 48.4688 27.026 48.5 26.9531C48.5312 26.8802 48.5755 26.8151 48.6328 26.7578C48.6953 26.6953 48.7656 26.6458 48.8438 26.6094C48.9271 26.5729 49.0182 26.5547 49.1172 26.5547C49.2786 26.5547 49.4505 26.6042 49.6328 26.7031C49.8151 26.8021 49.9948 26.9219 50.1719 27.0625C50.349 27.2031 50.5156 27.349 50.6719 27.5C50.8281 27.6458 50.9609 27.7682 51.0703 27.8672ZM44.4531 38.9375C44.9531 38.9375 45.4167 38.8646 45.8438 38.7188C46.2708 38.5729 46.6693 38.3698 47.0391 38.1094C47.4089 37.849 47.7526 37.5365 48.0703 37.1719C48.388 36.8125 48.6875 36.4167 48.9688 35.9844C48.6042 35.6979 48.2266 35.4297 47.8359 35.1797C47.4505 34.9297 47.0469 34.7109 46.625 34.5234C46.2031 34.3359 45.7604 34.1901 45.2969 34.0859C44.8385 33.9766 44.3516 33.9219 43.8359 33.9219C43.5286 33.9219 43.2578 33.987 43.0234 34.1172C42.7943 34.2474 42.6016 34.4193 42.4453 34.6328C42.2891 34.8464 42.1693 35.0911 42.0859 35.3672C42.0078 35.6432 41.9688 35.9297 41.9688 36.2266C41.9688 36.5547 42.0182 36.8802 42.1172 37.2031C42.2214 37.5312 42.375 37.8229 42.5781 38.0781C42.7812 38.3333 43.0391 38.5391 43.3516 38.6953C43.6641 38.8568 44.0312 38.9375 44.4531 38.9375ZM54.0391 28.0469C54.5443 27.875 55.0234 27.6615 55.4766 27.4062C55.9349 27.1458 56.3568 26.8672 56.7422 26.5703C57.1328 26.2734 57.4844 25.9661 57.7969 25.6484C58.1094 25.3307 58.375 25.0234 58.5938 24.7266C58.8177 24.4297 58.987 24.1562 59.1016 23.9062C59.2214 23.651 59.2812 23.4401 59.2812 23.2734C59.2812 23.0391 59.1615 22.9219 58.9219 22.9219C58.75 22.9219 58.5286 22.9844 58.2578 23.1094C57.987 23.2344 57.6927 23.4115 57.375 23.6406C57.0625 23.8698 56.737 24.1432 56.3984 24.4609C56.0651 24.7734 55.7474 25.1198 55.4453 25.5C55.1432 25.8802 54.8672 26.2865 54.6172 26.7188C54.3724 27.1458 54.1797 27.5885 54.0391 28.0469ZM62.1562 30.6484C62.4531 30.6484 62.7161 30.7083 62.9453 30.8281C63.1797 30.9479 63.375 31.112 63.5312 31.3203C63.6927 31.5234 63.8151 31.763 63.8984 32.0391C63.9818 32.3151 64.0234 32.6094 64.0234 32.9219C64.0234 33.1042 64.0026 33.3047 63.9609 33.5234C63.9193 33.7422 63.8594 33.9688 63.7812 34.2031C63.7031 34.4323 63.6068 34.6615 63.4922 34.8906C63.3828 35.1198 63.2604 35.3307 63.125 35.5234C63.224 35.4714 63.3438 35.4062 63.4844 35.3281C63.625 35.25 63.7734 35.1667 63.9297 35.0781C64.0911 34.9844 64.2578 34.888 64.4297 34.7891C64.6068 34.6901 64.7786 34.5938 64.9453 34.5L66.1562 33.7891C66.1927 33.7682 66.2422 33.7578 66.3047 33.7578C66.4245 33.7578 66.4844 33.8203 66.4844 33.9453C66.4844 34.1172 66.375 34.2812 66.1562 34.4375C65.9688 34.5625 65.724 34.7188 65.4219 34.9062C65.1198 35.0938 64.7917 35.2786 64.4375 35.4609C64.0885 35.638 63.7318 35.7969 63.3672 35.9375C63.0078 36.0729 62.6719 36.151 62.3594 36.1719C61.9531 36.474 61.4766 36.7188 60.9297 36.9062C60.3828 37.0885 59.7448 37.1797 59.0156 37.1797C58.6562 37.1797 58.3516 37.1484 58.1016 37.0859C57.8568 37.0234 57.6589 36.9323 57.5078 36.8125C57.3568 36.6927 57.2474 36.5469 57.1797 36.375C57.112 36.1979 57.0781 35.9948 57.0781 35.7656C57.0781 35.4323 57.1458 35.0755 57.2812 34.6953C57.4167 34.3151 57.5833 33.9453 57.7812 33.5859C57.9844 33.2214 58.2005 32.8828 58.4297 32.5703C58.6589 32.2578 58.8672 32 59.0547 31.7969C58.888 31.9427 58.651 32.1172 58.3438 32.3203C58.0417 32.5234 57.6979 32.7422 57.3125 32.9766C56.9323 33.2057 56.526 33.4453 56.0938 33.6953C55.6667 33.9453 55.2422 34.1927 54.8203 34.4375C54.7578 34.4635 54.7005 34.4766 54.6484 34.4766C54.5807 34.4766 54.5286 34.4583 54.4922 34.4219C54.4557 34.3802 54.4375 34.3281 54.4375 34.2656C54.4375 34.1927 54.4688 34.1172 54.5312 34.0391C54.5885 33.9557 54.6849 33.8724 54.8203 33.7891C55.612 33.3255 56.2865 32.9271 56.8438 32.5938C57.401 32.2552 57.8828 31.9688 58.2891 31.7344C58.6953 31.5 59.0495 31.3125 59.3516 31.1719C59.6536 31.0312 59.9427 30.9219 60.2188 30.8438C60.5 30.7656 60.7917 30.7135 61.0938 30.6875C61.3958 30.6615 61.75 30.6484 62.1562 30.6484ZM59.0312 36.5078C59.3594 36.5078 59.6797 36.4401 59.9922 36.3047C60.3047 36.1693 60.6094 35.9844 60.9062 35.75C60.8385 35.6719 60.7917 35.5833 60.7656 35.4844C60.7396 35.3854 60.7266 35.2839 60.7266 35.1797C60.7266 34.9974 60.7865 34.862 60.9062 34.7734C61.026 34.6797 61.1693 34.6328 61.3359 34.6328C61.513 34.6328 61.6849 34.6849 61.8516 34.7891C62.0182 34.6693 62.1771 34.526 62.3281 34.3594C62.4792 34.1927 62.6094 34.0156 62.7188 33.8281C62.8333 33.6406 62.9219 33.4479 62.9844 33.25C63.0521 33.0521 63.0859 32.8594 63.0859 32.6719C63.0859 32.5104 63.0547 32.3568 62.9922 32.2109C62.9349 32.0599 62.8385 31.9297 62.7031 31.8203C62.5729 31.7109 62.3984 31.625 62.1797 31.5625C61.9661 31.4948 61.7057 31.4609 61.3984 31.4609C61.1432 31.4609 60.888 31.5286 60.6328 31.6641C60.3828 31.7995 60.1406 31.9818 59.9062 32.2109C59.6771 32.4349 59.4609 32.6927 59.2578 32.9844C59.0599 33.2708 58.888 33.5677 58.7422 33.875C58.5964 34.1823 58.4818 34.4844 58.3984 34.7812C58.3151 35.0781 58.2734 35.349 58.2734 35.5938C58.2734 35.8646 58.3333 36.0859 58.4531 36.2578C58.5729 36.4245 58.7656 36.5078 59.0312 36.5078ZM71.1094 36.1719C70.9219 36.2292 70.776 36.2578 70.6719 36.2578C70.5208 36.4505 70.3594 36.625 70.1875 36.7812C70.0208 36.9375 69.8359 37.0703 69.6328 37.1797C69.4297 37.2891 69.2057 37.3724 68.9609 37.4297C68.7214 37.487 68.4505 37.5156 68.1484 37.5156C68.0339 37.5156 67.9349 37.4479 67.8516 37.3125C67.7734 37.1823 67.7031 37.013 67.6406 36.8047C67.5833 36.5911 67.5339 36.3542 67.4922 36.0938C67.4557 35.8333 67.4271 35.5729 67.4062 35.3125C67.3854 35.0521 67.3698 34.8073 67.3594 34.5781C67.3542 34.349 67.3516 34.1615 67.3516 34.0156C67.3516 33.9375 67.3516 33.875 67.3516 33.8281C67.3516 33.776 67.3542 33.7448 67.3594 33.7344L66.1641 34.4375C66.1016 34.4688 66.0469 34.4844 66 34.4844C65.8698 34.4844 65.8047 34.4115 65.8047 34.2656C65.8047 34.1927 65.8333 34.1146 65.8906 34.0312C65.9427 33.9479 66.0339 33.8672 66.1641 33.7891L67.375 33.0781C67.3958 32.8125 67.4297 32.5312 67.4766 32.2344C67.5286 31.9323 67.599 31.6536 67.6875 31.3984C67.7812 31.1432 67.8984 30.9323 68.0391 30.7656C68.1849 30.5938 68.3646 30.5078 68.5781 30.5078C68.6979 30.5078 68.7969 30.5182 68.875 30.5391C68.9531 30.5599 69.013 30.599 69.0547 30.6562C69.1016 30.7083 69.1328 30.7865 69.1484 30.8906C69.1641 30.9948 69.1719 31.1276 69.1719 31.2891C69.1719 31.513 69.1641 31.7656 69.1484 32.0469C69.1328 32.3281 69.112 32.625 69.0859 32.9375C69.0651 33.2448 69.0391 33.5599 69.0078 33.8828C68.9818 34.2005 68.9557 34.5078 68.9297 34.8047C68.9089 35.0964 68.8906 35.3698 68.875 35.625C68.8594 35.8802 68.8516 36.099 68.8516 36.2812C68.8516 36.4323 68.8568 36.5521 68.8672 36.6406C68.8776 36.7292 68.9036 36.7734 68.9453 36.7734C69.0182 36.7734 69.1276 36.6875 69.2734 36.5156C69.4245 36.3438 69.6172 36.0911 69.8516 35.7578C69.7995 35.6641 69.7604 35.5677 69.7344 35.4688C69.7135 35.3646 69.7031 35.2682 69.7031 35.1797C69.7031 34.9974 69.763 34.862 69.8828 34.7734C70.0026 34.6849 70.1458 34.6406 70.3125 34.6406C70.4167 34.6406 70.5 34.651 70.5625 34.6719C70.875 34.1823 71.2214 33.6302 71.6016 33.0156C71.9818 32.401 72.4089 31.7031 72.8828 30.9219L73.9219 30.7891L72.3047 33.4922C72.0964 33.8411 71.9062 34.1771 71.7344 34.5C71.5625 34.8177 71.3932 35.1198 71.2266 35.4062C71.2422 35.4792 71.25 35.5521 71.25 35.625C71.25 35.625 71.2891 35.599 71.3672 35.5469C71.4505 35.5 71.5599 35.4349 71.6953 35.3516C71.8307 35.263 71.9844 35.1641 72.1562 35.0547C72.3281 34.9453 72.5026 34.8333 72.6797 34.7188L74.1172 33.7891C74.1693 33.7578 74.2188 33.7422 74.2656 33.7422C74.3229 33.7422 74.3698 33.763 74.4062 33.8047C74.4479 33.8464 74.4688 33.8984 74.4688 33.9609C74.4688 34.0339 74.4401 34.112 74.3828 34.1953C74.3307 34.2734 74.2422 34.3542 74.1172 34.4375C74.0234 34.5 73.8984 34.5807 73.7422 34.6797C73.5911 34.7786 73.4219 34.8854 73.2344 35C73.0521 35.1146 72.8594 35.2318 72.6562 35.3516C72.4531 35.4714 72.2552 35.5859 72.0625 35.6953C71.875 35.8047 71.6979 35.901 71.5312 35.9844C71.3646 36.0677 71.224 36.1302 71.1094 36.1719ZM74.1172 34.4375C74.0651 34.474 74.0052 34.4922 73.9375 34.4922C73.8698 34.4922 73.8151 34.474 73.7734 34.4375C73.7318 34.3958 73.7109 34.3438 73.7109 34.2812C73.7109 34.2135 73.7422 34.138 73.8047 34.0547C73.862 33.9661 73.9661 33.8776 74.1172 33.7891L76.0938 32.625C76.2396 32.2135 76.4271 31.8594 76.6562 31.5625C76.8906 31.2604 77.1458 31.013 77.4219 30.8203C77.7031 30.6224 77.9948 30.4766 78.2969 30.3828C78.6042 30.2839 78.901 30.2344 79.1875 30.2344C79.4792 30.2344 79.7188 30.3125 79.9062 30.4688C80.099 30.6198 80.1953 30.8568 80.1953 31.1797C80.1953 31.3776 80.1224 31.5859 79.9766 31.8047C79.8359 32.0182 79.6406 32.2318 79.3906 32.4453C79.1458 32.6536 78.8568 32.849 78.5234 33.0312C78.1901 33.2135 77.8359 33.3672 77.4609 33.4922C77.4609 33.7422 77.4557 33.9792 77.4453 34.2031C77.4401 34.4271 77.4375 34.638 77.4375 34.8359C77.4375 35.0026 77.4427 35.1562 77.4531 35.2969C77.4635 35.4323 77.4844 35.5495 77.5156 35.6484C77.5521 35.7422 77.599 35.8177 77.6562 35.875C77.7188 35.9271 77.7969 35.9531 77.8906 35.9531C78.0365 35.9531 78.2109 35.8958 78.4141 35.7812C78.6224 35.6615 78.8828 35.5104 79.1953 35.3281C79.4766 35.1615 79.8359 34.9531 80.2734 34.7031C80.7109 34.4531 81.2448 34.1484 81.875 33.7891C81.8958 33.7734 81.9245 33.7656 81.9609 33.7656C82.0182 33.7656 82.0677 33.7917 82.1094 33.8438C82.1562 33.8906 82.1797 33.9505 82.1797 34.0234C82.1797 34.0859 82.1562 34.1536 82.1094 34.2266C82.0677 34.2995 81.9896 34.3698 81.875 34.4375C81.3594 34.7448 80.8594 35.0573 80.375 35.375C79.8906 35.6875 79.4323 35.974 79 36.2344C78.5729 36.4896 78.1771 36.7005 77.8125 36.8672C77.4479 37.0286 77.1302 37.1094 76.8594 37.1094C76.6771 37.1094 76.5156 37.0703 76.375 36.9922C76.2396 36.9141 76.1224 36.7891 76.0234 36.6172C75.9297 36.4453 75.8568 36.2214 75.8047 35.9453C75.7578 35.6641 75.7344 35.3229 75.7344 34.9219C75.7344 34.8594 75.737 34.7604 75.7422 34.625C75.7526 34.4844 75.7656 34.3359 75.7812 34.1797C75.8021 34.0182 75.8255 33.862 75.8516 33.7109C75.8776 33.5599 75.9089 33.4427 75.9453 33.3594C75.9089 33.3802 75.8542 33.4115 75.7812 33.4531C75.7135 33.4948 75.6328 33.5443 75.5391 33.6016C75.4453 33.6536 75.3464 33.7109 75.2422 33.7734C75.138 33.8359 75.0339 33.8984 74.9297 33.9609L74.1172 34.4375ZM79.3516 31.2422C79.362 31.2109 79.3672 31.1771 79.3672 31.1406C79.3672 31.0104 79.3438 30.9141 79.2969 30.8516C79.2552 30.7891 79.1823 30.7578 79.0781 30.7578C78.9583 30.7578 78.8203 30.8047 78.6641 30.8984C78.5078 30.987 78.3542 31.1198 78.2031 31.2969C78.0573 31.474 77.9245 31.6953 77.8047 31.9609C77.6901 32.2266 77.612 32.5312 77.5703 32.875C77.7839 32.7656 77.9922 32.6406 78.1953 32.5C78.3984 32.3542 78.5807 32.2083 78.7422 32.0625C78.9089 31.9115 79.0443 31.7656 79.1484 31.625C79.2578 31.4792 79.3255 31.3516 79.3516 31.2422ZM92.6562 47.2031C93.1719 47.2031 93.6432 47.0885 94.0703 46.8594C94.5026 46.6302 94.9036 46.3125 95.2734 45.9062C95.6432 45.5 95.987 45.0182 96.3047 44.4609C96.6172 43.9036 96.9141 43.2943 97.1953 42.6328C97.4818 41.9714 97.7552 41.2708 98.0156 40.5312L98.7969 38.2891L97.9297 38.7891C97.6901 38.9245 97.526 39.013 97.4375 39.0547C96.8542 39.3307 96.2682 39.6719 95.6797 40.0781C95.1328 40.4583 94.6328 40.8542 94.1797 41.2656C93.7318 41.6823 93.3333 42.1042 92.9844 42.5312C92.6354 42.9635 92.3411 43.3828 92.1016 43.7891C91.862 44.2005 91.6797 44.5911 91.5547 44.9609C91.4297 45.3307 91.3672 45.6641 91.3672 45.9609C91.3672 46.3411 91.4714 46.6432 91.6797 46.8672C91.888 47.0911 92.2135 47.2031 92.6562 47.2031ZM105.398 33.7891C105.461 33.7578 105.518 33.7422 105.57 33.7422C105.628 33.7422 105.672 33.763 105.703 33.8047C105.734 33.8411 105.75 33.888 105.75 33.9453C105.75 34.0182 105.721 34.1016 105.664 34.1953C105.607 34.2839 105.518 34.3646 105.398 34.4375L101.75 36.5781C101.38 37.5052 100.979 38.4349 100.547 39.3672C100.12 40.3047 99.6667 41.2057 99.1875 42.0703C98.7135 42.9349 98.2161 43.7422 97.6953 44.4922C97.1745 45.2474 96.638 45.901 96.0859 46.4531C95.5391 47.0104 94.9766 47.4479 94.3984 47.7656C93.8255 48.0885 93.2474 48.25 92.6641 48.25C92.2943 48.25 91.9766 48.2031 91.7109 48.1094C91.4609 48.026 91.2422 47.8958 91.0547 47.7188C90.8776 47.5521 90.7474 47.3516 90.6641 47.1172C90.5807 46.8828 90.5391 46.6224 90.5391 46.3359C90.5391 45.9609 90.6068 45.5521 90.7422 45.1094C90.8828 44.6667 91.0833 44.2057 91.3438 43.7266C91.6042 43.2526 91.9219 42.7682 92.2969 42.2734C92.6771 41.7839 93.1068 41.3047 93.5859 40.8359C94.0651 40.3724 94.5911 39.9271 95.1641 39.5C95.737 39.0781 96.349 38.6953 97 38.3516L98.0547 37.7969L99.1797 37.1875L100.164 34.9453C100.503 34.2057 100.857 33.4948 101.227 32.8125C101.57 32.1823 101.966 31.5312 102.414 30.8594C102.549 30.6562 102.688 30.4609 102.828 30.2734L102.219 31C101.703 31.599 101.185 32.1667 100.664 32.7031C100.148 33.2344 99.6276 33.724 99.1016 34.1719C98.5807 34.6198 98.0573 35.0052 97.5312 35.3281C97.0052 35.651 96.4766 35.9036 95.9453 36.0859C95.4141 36.2682 94.8802 36.3594 94.3438 36.3594C93.9896 36.3594 93.6927 36.3281 93.4531 36.2656C93.2135 36.2031 93.0182 36.1146 92.8672 36C92.7214 35.8854 92.6146 35.7526 92.5469 35.6016C92.4844 35.4453 92.4531 35.276 92.4531 35.0938C92.4531 34.776 92.5391 34.4297 92.7109 34.0547C92.888 33.6745 93.1068 33.2812 93.3672 32.875C93.6276 32.4688 93.9089 32.0573 94.2109 31.6406C94.5182 31.2188 94.8021 30.8073 95.0625 30.4062C95.3229 30.0052 95.5391 29.625 95.7109 29.2656C95.888 28.901 95.9766 28.5729 95.9766 28.2812C95.9766 27.8958 95.8594 27.5547 95.625 27.2578C95.3906 26.9609 95.0703 26.7109 94.6641 26.5078C94.263 26.3047 93.7943 26.151 93.2578 26.0469C92.7214 25.9427 92.1536 25.8906 91.5547 25.8906C90.8776 25.8906 90.1797 25.9531 89.4609 26.0781C88.737 26.1979 88.0312 26.3854 87.3438 26.6406C86.6615 26.8906 86.0156 27.2109 85.4062 27.6016C84.7917 27.987 84.2552 28.4453 83.7969 28.9766C83.3333 29.5078 82.9688 30.112 82.7031 30.7891C82.4323 31.4661 82.2969 32.2214 82.2969 33.0547C82.2969 33.2891 82.3099 33.5286 82.3359 33.7734C82.3568 34.0182 82.3958 34.2734 82.4531 34.5391L82.1172 34.4688C82.0339 34.1042 81.974 33.7552 81.9375 33.4219C81.901 33.0885 81.8828 32.7656 81.8828 32.4531C81.8828 31.5938 82.0052 30.8203 82.25 30.1328C82.4896 29.4401 82.8203 28.8281 83.2422 28.2969C83.6589 27.7604 84.151 27.3021 84.7188 26.9219C85.2865 26.5365 85.8984 26.2214 86.5547 25.9766C87.2057 25.7266 87.8854 25.5443 88.5938 25.4297C89.3073 25.3099 90.0156 25.25 90.7188 25.25C91.4688 25.25 92.1875 25.3229 92.875 25.4688C93.5625 25.6146 94.1693 25.8229 94.6953 26.0938C95.2266 26.3594 95.6484 26.6849 95.9609 27.0703C96.2786 27.4505 96.4375 27.875 96.4375 28.3438C96.4375 28.6667 96.3646 29.0078 96.2188 29.3672C96.0729 29.7214 95.888 30.0859 95.6641 30.4609C95.4453 30.8307 95.2083 31.2031 94.9531 31.5781L94.2422 32.6484C94.0182 32.9922 93.8333 33.3177 93.6875 33.625C93.5417 33.9271 93.4688 34.1979 93.4688 34.4375C93.4688 34.5781 93.4922 34.7057 93.5391 34.8203C93.5911 34.9349 93.6719 35.0339 93.7812 35.1172C93.8906 35.1953 94.0339 35.2578 94.2109 35.3047C94.3932 35.3464 94.6146 35.3672 94.875 35.3672C95.4635 35.3672 96.0495 35.2474 96.6328 35.0078C97.2109 34.7682 97.776 34.4531 98.3281 34.0625C98.8854 33.6719 99.4219 33.2266 99.9375 32.7266C100.453 32.2266 100.938 31.7161 101.391 31.1953C101.849 30.6745 102.268 30.1641 102.648 29.6641L103.656 28.3281L104.359 27.3828C104.542 27.1432 104.659 27.0234 104.711 27.0234C104.94 27.0234 105.109 27 105.219 26.9531C105.328 26.901 105.398 26.875 105.43 26.875C105.456 26.875 105.471 26.8932 105.477 26.9297C105.482 26.9661 105.484 27.0339 105.484 27.1328C105.484 27.3672 105.406 27.7526 105.25 28.2891C105.094 28.8255 104.87 29.4688 104.578 30.2188C104.286 30.9635 103.935 31.7943 103.523 32.7109C103.112 33.6276 102.648 34.5859 102.133 35.5859L103.414 34.8906L104.453 34.3125L105.398 33.7891ZM112.734 30.6484C113.031 30.6484 113.294 30.7083 113.523 30.8281C113.758 30.9479 113.953 31.112 114.109 31.3203C114.271 31.5234 114.393 31.763 114.477 32.0391C114.56 32.3151 114.602 32.6094 114.602 32.9219C114.602 33.1042 114.581 33.3047 114.539 33.5234C114.497 33.7422 114.438 33.9688 114.359 34.2031C114.281 34.4323 114.185 34.6615 114.07 34.8906C113.961 35.1198 113.839 35.3307 113.703 35.5234C113.802 35.4714 113.922 35.4062 114.062 35.3281C114.203 35.25 114.352 35.1667 114.508 35.0781C114.669 34.9844 114.836 34.888 115.008 34.7891C115.185 34.6901 115.357 34.5938 115.523 34.5L116.734 33.7891C116.771 33.7682 116.82 33.7578 116.883 33.7578C117.003 33.7578 117.062 33.8203 117.062 33.9453C117.062 34.1172 116.953 34.2812 116.734 34.4375C116.547 34.5625 116.302 34.7188 116 34.9062C115.698 35.0938 115.37 35.2786 115.016 35.4609C114.667 35.638 114.31 35.7969 113.945 35.9375C113.586 36.0729 113.25 36.151 112.938 36.1719C112.531 36.474 112.055 36.7188 111.508 36.9062C110.961 37.0885 110.323 37.1797 109.594 37.1797C109.234 37.1797 108.93 37.1484 108.68 37.0859C108.435 37.0234 108.237 36.9323 108.086 36.8125C107.935 36.6927 107.826 36.5469 107.758 36.375C107.69 36.1979 107.656 35.9948 107.656 35.7656C107.656 35.4323 107.724 35.0755 107.859 34.6953C107.995 34.3151 108.161 33.9453 108.359 33.5859C108.562 33.2214 108.779 32.8828 109.008 32.5703C109.237 32.2578 109.445 32 109.633 31.7969C109.466 31.9427 109.229 32.1172 108.922 32.3203C108.62 32.5234 108.276 32.7422 107.891 32.9766C107.51 33.2057 107.104 33.4453 106.672 33.6953C106.245 33.9453 105.82 34.1927 105.398 34.4375C105.336 34.4635 105.279 34.4766 105.227 34.4766C105.159 34.4766 105.107 34.4583 105.07 34.4219C105.034 34.3802 105.016 34.3281 105.016 34.2656C105.016 34.1927 105.047 34.1172 105.109 34.0391C105.167 33.9557 105.263 33.8724 105.398 33.7891C106.19 33.3255 106.865 32.9271 107.422 32.5938C107.979 32.2552 108.461 31.9688 108.867 31.7344C109.273 31.5 109.628 31.3125 109.93 31.1719C110.232 31.0312 110.521 30.9219 110.797 30.8438C111.078 30.7656 111.37 30.7135 111.672 30.6875C111.974 30.6615 112.328 30.6484 112.734 30.6484ZM109.609 36.5078C109.938 36.5078 110.258 36.4401 110.57 36.3047C110.883 36.1693 111.188 35.9844 111.484 35.75C111.417 35.6719 111.37 35.5833 111.344 35.4844C111.318 35.3854 111.305 35.2839 111.305 35.1797C111.305 34.9974 111.365 34.862 111.484 34.7734C111.604 34.6797 111.747 34.6328 111.914 34.6328C112.091 34.6328 112.263 34.6849 112.43 34.7891C112.596 34.6693 112.755 34.526 112.906 34.3594C113.057 34.1927 113.188 34.0156 113.297 33.8281C113.411 33.6406 113.5 33.4479 113.562 33.25C113.63 33.0521 113.664 32.8594 113.664 32.6719C113.664 32.5104 113.633 32.3568 113.57 32.2109C113.513 32.0599 113.417 31.9297 113.281 31.8203C113.151 31.7109 112.977 31.625 112.758 31.5625C112.544 31.4948 112.284 31.4609 111.977 31.4609C111.721 31.4609 111.466 31.5286 111.211 31.6641C110.961 31.7995 110.719 31.9818 110.484 32.2109C110.255 32.4349 110.039 32.6927 109.836 32.9844C109.638 33.2708 109.466 33.5677 109.32 33.875C109.174 34.1823 109.06 34.4844 108.977 34.7812C108.893 35.0781 108.852 35.349 108.852 35.5938C108.852 35.8646 108.911 36.0859 109.031 36.2578C109.151 36.4245 109.344 36.5078 109.609 36.5078ZM121.062 36.8047C121.266 36.7786 121.518 36.6979 121.82 36.5625C122.122 36.4219 122.453 36.2422 122.812 36.0234C123.172 35.7995 123.547 35.5417 123.938 35.25C124.333 34.9583 124.727 34.6458 125.117 34.3125C125.508 33.9792 125.885 33.6302 126.25 33.2656C126.62 32.901 126.956 32.5365 127.258 32.1719C127.279 32.1406 127.292 32.0859 127.297 32.0078C127.307 31.9245 127.328 31.8411 127.359 31.7578C127.396 31.6693 127.451 31.5938 127.523 31.5312C127.602 31.4635 127.719 31.4297 127.875 31.4297C128.005 31.4297 128.109 31.4453 128.188 31.4766C128.266 31.5078 128.323 31.5521 128.359 31.6094C128.401 31.6615 128.427 31.7266 128.438 31.8047C128.448 31.8776 128.453 31.9609 128.453 32.0547C128.453 32.1484 128.43 32.2786 128.383 32.4453C128.341 32.6068 128.284 32.7943 128.211 33.0078C128.138 33.2161 128.055 33.4427 127.961 33.6875C127.867 33.9323 127.771 34.1797 127.672 34.4297C127.578 34.6745 127.484 34.9193 127.391 35.1641C127.302 35.4036 127.224 35.625 127.156 35.8281C127.224 35.7917 127.323 35.7344 127.453 35.6562C127.583 35.5781 127.732 35.487 127.898 35.3828C128.07 35.2786 128.25 35.1667 128.438 35.0469C128.63 34.9271 128.82 34.8073 129.008 34.6875L130.438 33.7891C130.474 33.7682 130.513 33.7578 130.555 33.7578C130.612 33.7578 130.664 33.7812 130.711 33.8281C130.758 33.8698 130.781 33.9245 130.781 33.9922C130.781 34.0651 130.753 34.1406 130.695 34.2188C130.643 34.2917 130.557 34.3646 130.438 34.4375L126.75 36.6016C126.708 36.6276 126.667 36.6693 126.625 36.7266C126.589 36.7786 126.544 36.8307 126.492 36.8828C126.445 36.9349 126.385 36.9792 126.312 37.0156C126.245 37.0573 126.156 37.0781 126.047 37.0781C125.943 37.0781 125.857 37.0521 125.789 37C125.721 36.9427 125.688 36.8672 125.688 36.7734C125.688 36.6536 125.716 36.4974 125.773 36.3047C125.836 36.112 125.911 35.901 126 35.6719C126.094 35.4375 126.198 35.1953 126.312 34.9453C126.432 34.6901 126.547 34.4427 126.656 34.2031C126.771 33.9583 126.875 33.7292 126.969 33.5156C127.068 33.2969 127.146 33.1094 127.203 32.9531C126.979 33.2344 126.716 33.5391 126.414 33.8672C126.112 34.1953 125.779 34.5234 125.414 34.8516C125.055 35.1745 124.672 35.4896 124.266 35.7969C123.859 36.099 123.44 36.3672 123.008 36.6016C122.576 36.8307 122.138 37.0156 121.695 37.1562C121.253 37.2969 120.812 37.3672 120.375 37.3672C120.125 37.3672 119.953 37.2995 119.859 37.1641C119.766 37.0339 119.719 36.8568 119.719 36.6328C119.719 36.4297 119.753 36.1901 119.82 35.9141C119.888 35.638 119.977 35.3438 120.086 35.0312C120.195 34.7188 120.318 34.3984 120.453 34.0703C120.594 33.7422 120.729 33.4271 120.859 33.125C120.995 32.8229 121.12 32.5417 121.234 32.2812C121.354 32.0208 121.451 31.8021 121.523 31.625C121.279 31.7552 120.987 31.9167 120.648 32.1094C120.315 32.3021 119.945 32.5208 119.539 32.7656C119.133 33.0052 118.693 33.2682 118.219 33.5547C117.75 33.8359 117.258 34.1302 116.742 34.4375C116.685 34.4688 116.633 34.4844 116.586 34.4844C116.523 34.4844 116.469 34.4635 116.422 34.4219C116.375 34.3802 116.352 34.3255 116.352 34.2578C116.352 34.1953 116.383 34.125 116.445 34.0469C116.503 33.9635 116.602 33.8776 116.742 33.7891C117.404 33.388 118.031 33.0208 118.625 32.6875C119.219 32.3542 119.755 32.0703 120.234 31.8359C120.719 31.5964 121.13 31.4115 121.469 31.2812C121.812 31.1458 122.06 31.0781 122.211 31.0781C122.523 31.0781 122.742 31.1406 122.867 31.2656C122.997 31.3906 123.062 31.5625 123.062 31.7812C123.062 32.0052 123.005 32.2656 122.891 32.5625C122.781 32.8542 122.643 33.1589 122.477 33.4766C122.31 33.7943 122.13 34.1146 121.938 34.4375C121.745 34.7604 121.565 35.0651 121.398 35.3516C121.232 35.638 121.091 35.8932 120.977 36.1172C120.867 36.3411 120.812 36.513 120.812 36.6328C120.812 36.7526 120.872 36.8125 120.992 36.8125C121.034 36.8125 121.057 36.8099 121.062 36.8047ZM139.203 31.3672C139.203 31.4974 139.18 31.651 139.133 31.8281C139.086 32 139.026 32.1849 138.953 32.3828C138.88 32.5755 138.802 32.7734 138.719 32.9766C138.635 33.1797 138.557 33.3776 138.484 33.5703C138.411 33.7578 138.352 33.9349 138.305 34.1016C138.258 34.2682 138.234 34.4089 138.234 34.5234C138.234 34.6224 138.255 34.7005 138.297 34.7578C138.344 34.8151 138.417 34.8438 138.516 34.8438C138.589 34.8438 138.69 34.8177 138.82 34.7656C138.956 34.7083 139.112 34.6328 139.289 34.5391C139.471 34.4401 139.669 34.3281 139.883 34.2031C140.102 34.0729 140.331 33.9349 140.57 33.7891C140.622 33.7578 140.674 33.7422 140.727 33.7422C140.784 33.7422 140.833 33.763 140.875 33.8047C140.922 33.8464 140.945 33.8984 140.945 33.9609C140.945 34.0286 140.917 34.1016 140.859 34.1797C140.802 34.2526 140.706 34.3385 140.57 34.4375C139.893 34.9427 139.273 35.3333 138.711 35.6094C138.154 35.8854 137.708 36.0234 137.375 36.0234C137.104 36.0234 136.891 35.9818 136.734 35.8984C136.578 35.8151 136.5 35.6849 136.5 35.5078C136.5 35.3411 136.57 35.1302 136.711 34.875C136.857 34.6198 137.094 34.3177 137.422 33.9688C137.547 33.7604 137.646 33.5339 137.719 33.2891C137.792 33.0391 137.844 32.7969 137.875 32.5625C137.911 32.3229 137.935 32.1042 137.945 31.9062C137.956 31.7031 137.961 31.5417 137.961 31.4219C137.961 31.224 137.927 31.0729 137.859 30.9688C137.797 30.8594 137.69 30.8047 137.539 30.8047C137.372 30.8047 137.208 30.8802 137.047 31.0312C136.891 31.1771 136.732 31.3802 136.57 31.6406C136.414 31.901 136.258 32.2083 136.102 32.5625C135.945 32.9167 135.784 33.2995 135.617 33.7109C135.456 34.1224 135.289 34.5521 135.117 35C134.945 35.4479 134.766 35.8984 134.578 36.3516C134.547 36.4401 134.508 36.5312 134.461 36.625C134.414 36.7188 134.359 36.8073 134.297 36.8906C134.24 36.9688 134.172 37.0339 134.094 37.0859C134.021 37.138 133.943 37.1641 133.859 37.1641C133.661 37.1641 133.513 37.1198 133.414 37.0312C133.315 36.9427 133.266 36.7969 133.266 36.5938C133.266 36.5365 133.268 36.4766 133.273 36.4141C133.284 36.3516 133.31 36.2786 133.352 36.1953L134.859 33.1719C135.057 32.6615 135.268 32.2396 135.492 31.9062C135.721 31.5729 135.927 31.3047 136.109 31.1016C135.682 31.3568 135.255 31.612 134.828 31.8672C134.401 32.1224 133.99 32.3698 133.594 32.6094C133.198 32.8438 132.823 33.0677 132.469 33.2812C132.12 33.4896 131.807 33.6745 131.531 33.8359C131.255 33.9974 131.023 34.1302 130.836 34.2344C130.648 34.3385 130.518 34.4062 130.445 34.4375C130.404 34.4635 130.359 34.4766 130.312 34.4766C130.255 34.4766 130.208 34.4557 130.172 34.4141C130.13 34.3724 130.109 34.3177 130.109 34.25C130.109 34.1771 130.135 34.099 130.188 34.0156C130.234 33.9271 130.32 33.8464 130.445 33.7734L132.531 32.5547C132.802 32.3932 133.076 32.2318 133.352 32.0703C133.628 31.9036 133.885 31.75 134.125 31.6094C134.37 31.4688 134.586 31.3438 134.773 31.2344C134.961 31.125 135.104 31.0417 135.203 30.9844C135.453 30.8385 135.695 30.7135 135.93 30.6094C136.169 30.5052 136.406 30.4193 136.641 30.3516C136.875 30.2839 137.112 30.2318 137.352 30.1953C137.596 30.1589 137.852 30.1328 138.117 30.1172C138.232 30.1172 138.352 30.1536 138.477 30.2266C138.607 30.2943 138.724 30.388 138.828 30.5078C138.938 30.6224 139.026 30.7552 139.094 30.9062C139.167 31.0521 139.203 31.2057 139.203 31.3672ZM163.773 34.7812C163.872 34.7344 164.005 34.6667 164.172 34.5781C164.339 34.4844 164.508 34.388 164.68 34.2891C164.857 34.1901 165.021 34.0964 165.172 34.0078C165.323 33.9141 165.435 33.8411 165.508 33.7891C165.576 33.737 165.633 33.7109 165.68 33.7109C165.721 33.7109 165.753 33.7474 165.773 33.8203C165.799 33.888 165.812 33.9661 165.812 34.0547C165.812 34.0703 165.81 34.0859 165.805 34.1016C165.805 34.1172 165.805 34.1328 165.805 34.1484C165.794 34.2109 165.711 34.2995 165.555 34.4141C165.398 34.5286 165.198 34.6589 164.953 34.8047C164.714 34.9453 164.443 35.099 164.141 35.2656C163.844 35.4271 163.544 35.5885 163.242 35.75C162.945 35.9062 162.661 36.0547 162.391 36.1953C162.125 36.3307 161.901 36.4453 161.719 36.5391C161.344 36.7318 160.969 36.9193 160.594 37.1016C160.224 37.2839 159.865 37.4349 159.516 37.5547C158.964 37.7734 158.336 37.9401 157.633 38.0547C156.935 38.1693 156.138 38.2266 155.242 38.2266C154.56 38.2266 153.919 38.1406 153.32 37.9688C152.721 37.7969 152.198 37.5521 151.75 37.2344C151.307 36.9219 150.956 36.5469 150.695 36.1094C150.44 35.6667 150.312 35.1771 150.312 34.6406C150.312 34.5677 150.315 34.4974 150.32 34.4297C150.326 34.3568 150.333 34.2839 150.344 34.2109C150.047 34.2943 149.779 34.3672 149.539 34.4297C149.305 34.4922 149.081 34.5469 148.867 34.5938C148.659 34.6354 148.453 34.6667 148.25 34.6875C148.052 34.7083 147.844 34.7188 147.625 34.7188C147.203 34.7188 146.839 34.6745 146.531 34.5859C146.229 34.4974 145.979 34.375 145.781 34.2188C145.589 34.0573 145.445 33.8672 145.352 33.6484C145.263 33.4245 145.219 33.1771 145.219 32.9062C145.219 32.5365 145.297 32.1328 145.453 31.6953C145.615 31.2578 145.841 30.8073 146.133 30.3438C146.424 29.8802 146.773 29.4141 147.18 28.9453C147.586 28.4714 148.036 28.0156 148.531 27.5781C149.031 27.1406 149.568 26.7344 150.141 26.3594C150.714 25.9792 151.31 25.6484 151.93 25.3672C152.549 25.0859 153.185 24.8646 153.836 24.7031C154.492 24.5417 155.148 24.4609 155.805 24.4609C156.133 24.4609 156.411 24.4844 156.641 24.5312C156.87 24.5729 157.055 24.6276 157.195 24.6953C157.341 24.763 157.448 24.8359 157.516 24.9141C157.583 24.987 157.617 25.0547 157.617 25.1172C157.617 25.1849 157.594 25.2344 157.547 25.2656C157.505 25.2917 157.456 25.3047 157.398 25.3047C157.32 25.3047 157.224 25.2839 157.109 25.2422C156.995 25.2005 156.849 25.1562 156.672 25.1094C156.5 25.0573 156.289 25.0104 156.039 24.9688C155.794 24.9271 155.503 24.9062 155.164 24.9062C154.69 24.9062 154.195 24.9818 153.68 25.1328C153.169 25.2839 152.656 25.4922 152.141 25.7578C151.63 26.0182 151.125 26.3255 150.625 26.6797C150.125 27.0286 149.651 27.4036 149.203 27.8047C148.755 28.2057 148.339 28.6224 147.953 29.0547C147.573 29.487 147.245 29.9141 146.969 30.3359C146.693 30.7578 146.477 31.1667 146.32 31.5625C146.164 31.9531 146.086 32.3073 146.086 32.625C146.086 32.8333 146.122 33.0234 146.195 33.1953C146.268 33.3672 146.383 33.5156 146.539 33.6406C146.701 33.7604 146.904 33.8542 147.148 33.9219C147.398 33.9896 147.698 34.0234 148.047 34.0234C148.266 34.0234 148.458 34.0156 148.625 34C148.792 33.9844 148.961 33.9609 149.133 33.9297C149.305 33.8932 149.49 33.849 149.688 33.7969C149.891 33.7448 150.133 33.6849 150.414 33.6172C150.518 33.0495 150.68 32.4844 150.898 31.9219C151.122 31.3594 151.388 30.8229 151.695 30.3125C152.003 29.7969 152.344 29.3203 152.719 28.8828C153.099 28.4401 153.495 28.0573 153.906 27.7344C154.323 27.4115 154.747 27.1589 155.18 26.9766C155.617 26.7891 156.047 26.6953 156.469 26.6953C156.781 26.6953 157.086 26.7526 157.383 26.8672C157.685 26.9766 157.971 27.151 158.242 27.3906C158.513 27.6302 158.766 27.9401 159 28.3203C159.24 28.7005 159.453 29.1589 159.641 29.6953C160.141 29.4089 160.62 29.1224 161.078 28.8359C161.542 28.5443 162.003 28.2422 162.461 27.9297C162.539 27.2734 162.625 26.651 162.719 26.0625C162.818 25.474 162.951 24.9115 163.117 24.375C163.424 23.4531 163.763 22.6615 164.133 22C164.508 21.3333 164.906 20.7865 165.328 20.3594C165.75 19.9271 166.193 19.6094 166.656 19.4062C167.125 19.1979 167.607 19.0938 168.102 19.0938C168.357 19.0938 168.591 19.1224 168.805 19.1797C169.023 19.2318 169.211 19.3099 169.367 19.4141C169.523 19.513 169.643 19.6406 169.727 19.7969C169.815 19.9479 169.859 20.1198 169.859 20.3125C169.859 20.4271 169.849 20.5286 169.828 20.6172C169.734 21.0495 169.565 21.5182 169.32 22.0234C169.081 22.5286 168.75 23.0573 168.328 23.6094C167.911 24.1562 167.398 24.7188 166.789 25.2969C166.185 25.875 165.471 26.4531 164.648 27.0312C164.56 27.4688 164.477 27.9115 164.398 28.3594C164.326 28.8073 164.25 29.2526 164.172 29.6953C164.099 30.138 164.023 30.5729 163.945 31C163.867 31.4271 163.781 31.8385 163.688 32.2344C163.521 32.8646 163.32 33.4609 163.086 34.0234C162.857 34.5859 162.562 35.1042 162.203 35.5781C162.531 35.4115 162.836 35.2552 163.117 35.1094C163.398 34.9635 163.617 34.8542 163.773 34.7812ZM161.383 33.6484C161.497 33.3047 161.607 32.9167 161.711 32.4844C161.815 32.0469 161.909 31.599 161.992 31.1406C162.081 30.6771 162.159 30.2214 162.227 29.7734C162.299 29.3203 162.359 28.901 162.406 28.5156C161.536 29.0729 160.646 29.6042 159.734 30.1094C159.76 30.1979 159.781 30.2891 159.797 30.3828C159.812 30.4714 159.82 30.5677 159.82 30.6719C159.82 30.7812 159.807 30.9115 159.781 31.0625C159.76 31.2083 159.724 31.349 159.672 31.4844C159.625 31.6146 159.562 31.7266 159.484 31.8203C159.411 31.9141 159.326 31.9609 159.227 31.9609C159.143 31.9609 159.073 31.9323 159.016 31.875C158.964 31.8177 158.938 31.7448 158.938 31.6562C158.938 31.5625 158.945 31.4714 158.961 31.3828C158.977 31.2943 158.984 31.2083 158.984 31.125C158.984 30.9062 158.958 30.7188 158.906 30.5625C157.521 31.3177 156.159 31.9896 154.82 32.5781C153.482 33.1667 152.206 33.6484 150.992 34.0234C150.987 34.0651 150.984 34.1042 150.984 34.1406C150.984 34.1719 150.984 34.2057 150.984 34.2422C150.984 34.7943 151.096 35.263 151.32 35.6484C151.549 36.0339 151.857 36.349 152.242 36.5938C152.628 36.8333 153.073 37.0078 153.578 37.1172C154.089 37.2266 154.625 37.2812 155.188 37.2812C155.531 37.2812 155.854 37.2656 156.156 37.2344C156.464 37.2083 156.758 37.1693 157.039 37.1172C156.956 36.9974 156.898 36.888 156.867 36.7891C156.836 36.6901 156.82 36.6276 156.82 36.6016C156.82 36.4922 156.846 36.3932 156.898 36.3047C156.956 36.2109 157.029 36.1328 157.117 36.0703C157.206 36.0026 157.31 35.9505 157.43 35.9141C157.549 35.8776 157.677 35.8594 157.812 35.8594C157.99 35.8594 158.159 35.8984 158.32 35.9766C158.482 36.0495 158.612 36.1693 158.711 36.3359C158.753 36.4089 158.802 36.4714 158.859 36.5234C159.484 36.2005 159.997 35.7917 160.398 35.2969C160.799 34.8021 161.128 34.2526 161.383 33.6484ZM158.852 30.1328C158.669 29.6276 158.474 29.1953 158.266 28.8359C158.057 28.4714 157.836 28.1745 157.602 27.9453C157.372 27.7109 157.133 27.5391 156.883 27.4297C156.633 27.3203 156.375 27.2656 156.109 27.2656C155.797 27.2656 155.479 27.3385 155.156 27.4844C154.839 27.6302 154.521 27.8359 154.203 28.1016C153.891 28.3672 153.583 28.6875 153.281 29.0625C152.979 29.4375 152.69 29.8542 152.414 30.3125C152.143 30.7708 151.888 31.2656 151.648 31.7969C151.409 32.3229 151.195 32.875 151.008 33.4531C152.232 33.0938 153.503 32.6328 154.82 32.0703C156.143 31.5026 157.487 30.8568 158.852 30.1328ZM165.281 24.5547C165.182 24.8516 165.094 25.151 165.016 25.4531C164.938 25.75 164.862 26.0547 164.789 26.3672C165.508 25.8516 166.12 25.3411 166.625 24.8359C167.135 24.3255 167.557 23.8333 167.891 23.3594C168.229 22.8802 168.492 22.4245 168.68 21.9922C168.867 21.5599 169 21.1641 169.078 20.8047C169.083 20.7891 169.086 20.7526 169.086 20.6953C169.086 20.513 168.997 20.362 168.82 20.2422C168.648 20.1224 168.422 20.0625 168.141 20.0625C167.859 20.0625 167.604 20.1354 167.375 20.2812C167.151 20.4271 166.93 20.6745 166.711 21.0234C166.497 21.3672 166.276 21.8281 166.047 22.4062C165.818 22.9792 165.562 23.6953 165.281 24.5547ZM170.023 31.1406C170.362 30.9323 170.703 30.6875 171.047 30.4062C171.391 30.125 171.721 29.8281 172.039 29.5156C172.357 29.1979 172.654 28.875 172.93 28.5469C173.206 28.2188 173.445 27.9036 173.648 27.6016C173.852 27.2995 174.01 27.0208 174.125 26.7656C174.245 26.5052 174.305 26.2891 174.305 26.1172C174.305 25.9922 174.268 25.8932 174.195 25.8203C174.128 25.7474 174.016 25.7109 173.859 25.7109C173.312 25.7109 172.836 25.849 172.43 26.125C172.023 26.401 171.669 26.7839 171.367 27.2734C171.065 27.7578 170.805 28.3307 170.586 28.9922C170.372 29.6536 170.185 30.3698 170.023 31.1406ZM174.867 31.0938C174.867 30.9531 174.771 30.8828 174.578 30.8828C174.391 30.8828 174.13 30.9635 173.797 31.125C173.469 31.2865 173.104 31.5078 172.703 31.7891C172.307 32.0651 171.898 32.3906 171.477 32.7656C171.055 33.1406 170.659 33.5417 170.289 33.9688C169.919 34.3958 169.596 34.8411 169.32 35.3047C169.044 35.763 168.857 36.2188 168.758 36.6719C168.742 36.75 168.693 36.8229 168.609 36.8906C168.531 36.9531 168.438 37.0052 168.328 37.0469C168.224 37.0938 168.112 37.125 167.992 37.1406C167.878 37.1615 167.773 37.1589 167.68 37.1328C167.591 37.112 167.518 37.0703 167.461 37.0078C167.409 36.9453 167.396 36.8542 167.422 36.7344C167.427 36.7344 167.456 36.599 167.508 36.3281C167.549 36.0885 167.641 35.6667 167.781 35.0625L168.312 32.7734L165.508 34.4375C165.456 34.474 165.396 34.4922 165.328 34.4922C165.266 34.4922 165.216 34.474 165.18 34.4375C165.138 34.3958 165.117 34.3438 165.117 34.2812C165.117 34.2083 165.148 34.1302 165.211 34.0469C165.268 33.9583 165.367 33.8724 165.508 33.7891L168.359 32.1094C168.646 31.0729 168.94 30.1328 169.242 29.2891C169.549 28.4453 169.909 27.7266 170.32 27.1328C170.737 26.5339 171.232 26.0729 171.805 25.75C172.383 25.4271 173.086 25.2656 173.914 25.2656C174.398 25.2656 174.745 25.3411 174.953 25.4922C175.167 25.6432 175.273 25.8464 175.273 26.1016C175.273 26.3411 175.193 26.6172 175.031 26.9297C174.875 27.2422 174.661 27.5729 174.391 27.9219C174.12 28.2656 173.807 28.6198 173.453 28.9844C173.099 29.349 172.727 29.7031 172.336 30.0469C171.945 30.3906 171.547 30.7135 171.141 31.0156C170.74 31.3177 170.357 31.5807 169.992 31.8047L169.164 35.2422C169.279 34.7734 169.445 34.3333 169.664 33.9219C169.893 33.5052 170.156 33.1224 170.453 32.7734C170.755 32.4193 171.081 32.1016 171.43 31.8203C171.779 31.5391 172.13 31.3021 172.484 31.1094C172.844 30.9115 173.195 30.7604 173.539 30.6562C173.883 30.5521 174.201 30.5 174.492 30.5C174.68 30.5 174.849 30.526 175 30.5781C175.156 30.625 175.289 30.7005 175.398 30.8047C175.508 30.9036 175.594 31.0312 175.656 31.1875C175.719 31.3438 175.75 31.5312 175.75 31.75C175.75 31.875 175.672 32.013 175.516 32.1641C175.365 32.3151 175.172 32.4661 174.938 32.6172C174.703 32.7682 174.448 32.9141 174.172 33.0547C173.896 33.1953 173.638 33.3203 173.398 33.4297C173.596 33.5807 173.737 33.737 173.82 33.8984C173.909 34.0599 173.953 34.2344 173.953 34.4219C173.953 34.6719 173.844 34.9427 173.625 35.2344C173.406 35.5208 173.122 35.8255 172.773 36.1484L173.164 35.9219L173.727 35.6016L174.383 35.2188L175.078 34.8125L176.805 33.7891C176.841 33.7682 176.88 33.7578 176.922 33.7578C176.979 33.7578 177.031 33.7786 177.078 33.8203C177.125 33.862 177.148 33.9193 177.148 33.9922C177.148 34.0547 177.122 34.1276 177.07 34.2109C177.018 34.2891 176.93 34.3646 176.805 34.4375L174.672 35.7109L173.852 36.2031L173.094 36.6562L172.492 37C172.326 37.099 172.211 37.1641 172.148 37.1953C172.096 37.2214 172.044 37.2422 171.992 37.2578C171.945 37.2786 171.901 37.2865 171.859 37.2812C171.547 37.2812 171.318 37.2161 171.172 37.0859C171.031 36.9557 170.961 36.8021 170.961 36.625C170.961 36.5208 171.008 36.4219 171.102 36.3281C171.195 36.2292 171.352 36.1328 171.57 36.0391L172.086 35.5625C172.242 35.4115 172.375 35.276 172.484 35.1562C172.599 35.0365 172.688 34.9323 172.75 34.8438C172.818 34.7552 172.852 34.6823 172.852 34.625C172.852 34.4531 172.815 34.3333 172.742 34.2656C172.669 34.1979 172.586 34.1432 172.492 34.1016C172.404 34.0599 172.323 34.013 172.25 33.9609C172.177 33.9089 172.141 33.8151 172.141 33.6797C172.141 33.5911 172.208 33.4896 172.344 33.375C172.479 33.2552 172.648 33.1276 172.852 32.9922L173.508 32.5625C173.742 32.4062 173.958 32.2474 174.156 32.0859C174.359 31.9245 174.529 31.7604 174.664 31.5938C174.799 31.4271 174.867 31.2604 174.867 31.0938ZM185.586 34.4375C184.779 34.901 184.094 35.3047 183.531 35.6484C182.969 35.987 182.49 36.2682 182.094 36.4922C181.698 36.7109 181.362 36.875 181.086 36.9844C180.815 37.0885 180.568 37.1406 180.344 37.1406C180.125 37.1406 179.938 37.1146 179.781 37.0625C179.63 37.0104 179.505 36.9401 179.406 36.8516C179.307 36.763 179.234 36.6562 179.188 36.5312C179.146 36.4062 179.125 36.2708 179.125 36.125C179.125 36.0156 179.148 35.9036 179.195 35.7891C179.242 35.6745 179.299 35.5573 179.367 35.4375C179.44 35.3177 179.516 35.1927 179.594 35.0625C179.672 34.9271 179.745 34.7839 179.812 34.6328L181 31.9766L176.805 34.4375C176.737 34.4635 176.69 34.4766 176.664 34.4766C176.602 34.4766 176.547 34.4557 176.5 34.4141C176.448 34.3724 176.422 34.3177 176.422 34.25C176.422 34.1875 176.451 34.1172 176.508 34.0391C176.56 33.9609 176.659 33.8776 176.805 33.7891L178.828 32.6094C179.094 32.4531 179.362 32.2969 179.633 32.1406C179.904 31.9844 180.156 31.8385 180.391 31.7031C180.63 31.5677 180.844 31.4479 181.031 31.3438C181.224 31.2344 181.372 31.151 181.477 31.0938H182.484C182.505 31.1094 182.523 31.1354 182.539 31.1719C182.555 31.2083 182.562 31.263 182.562 31.3359C182.562 31.4714 182.523 31.6641 182.445 31.9141C182.367 32.1589 182.268 32.4349 182.148 32.7422C182.034 33.0495 181.904 33.3724 181.758 33.7109C181.617 34.0443 181.484 34.362 181.359 34.6641C181.234 34.9609 181.104 35.2578 180.969 35.5547C180.833 35.8516 180.698 36.1562 180.562 36.4688C180.703 36.4688 180.924 36.3984 181.227 36.2578C181.534 36.1172 181.904 35.9271 182.336 35.6875C182.773 35.4427 183.266 35.1589 183.812 34.8359C184.365 34.5078 184.956 34.1589 185.586 33.7891C185.607 33.7682 185.646 33.7578 185.703 33.7578C185.766 33.7578 185.823 33.7786 185.875 33.8203C185.932 33.862 185.961 33.9193 185.961 33.9922C185.961 34.0547 185.932 34.125 185.875 34.2031C185.823 34.276 185.727 34.3542 185.586 34.4375ZM183.43 28.3594C183.461 28.3594 183.518 28.362 183.602 28.3672C183.69 28.3672 183.789 28.3724 183.898 28.3828C184.008 28.3932 184.122 28.4115 184.242 28.4375C184.362 28.4583 184.471 28.4922 184.57 28.5391C184.669 28.5807 184.753 28.6354 184.82 28.7031C184.888 28.7708 184.924 28.8542 184.93 28.9531L183.797 29.8125L183.281 30.0547C183.188 30.0547 183.115 30.0286 183.062 29.9766C183.01 29.9245 182.971 29.8698 182.945 29.8125L183.43 28.3594ZM195.031 31.9375C194.833 31.9375 194.586 31.9948 194.289 32.1094C193.992 32.2188 193.667 32.3724 193.312 32.5703C192.958 32.763 192.589 32.9922 192.203 33.2578C191.823 33.5234 191.448 33.8125 191.078 34.125C190.714 34.4375 190.365 34.7682 190.031 35.1172C189.703 35.4609 189.417 35.8073 189.172 36.1562C189.146 36.1823 189.133 36.2422 189.133 36.3359C189.133 36.4245 189.117 36.5182 189.086 36.6172C189.06 36.7161 189.005 36.8047 188.922 36.8828C188.839 36.9609 188.701 37 188.508 37C188.372 37 188.266 36.9844 188.188 36.9531C188.115 36.9219 188.057 36.8802 188.016 36.8281C187.979 36.7708 187.956 36.7057 187.945 36.6328C187.935 36.5547 187.93 36.4688 187.93 36.375C187.93 36.2812 187.956 36.1432 188.008 35.9609C188.06 35.7786 188.128 35.5677 188.211 35.3281C188.294 35.0885 188.388 34.8307 188.492 34.5547C188.596 34.2786 188.701 34.0026 188.805 33.7266C188.914 33.4505 189.016 33.1823 189.109 32.9219C189.208 32.6615 189.292 32.4271 189.359 32.2188L185.586 34.4375C185.56 34.4427 185.539 34.4479 185.523 34.4531C185.503 34.4531 185.487 34.4531 185.477 34.4531C185.404 34.4531 185.352 34.4349 185.32 34.3984C185.284 34.3568 185.266 34.3073 185.266 34.25C185.266 34.1771 185.294 34.099 185.352 34.0156C185.404 33.9271 185.482 33.8516 185.586 33.7891C186.367 33.3255 187.01 32.9453 187.516 32.6484C188.026 32.3464 188.435 32.1042 188.742 31.9219C189.049 31.7396 189.279 31.6042 189.43 31.5156C189.586 31.4271 189.703 31.362 189.781 31.3203C189.854 31.2786 189.919 31.25 189.977 31.2344C190.039 31.2188 190.107 31.2109 190.18 31.2109C190.331 31.2109 190.453 31.2552 190.547 31.3438C190.646 31.4323 190.695 31.5312 190.695 31.6406C190.695 31.75 190.661 31.901 190.594 32.0938C190.526 32.2812 190.443 32.487 190.344 32.7109C190.245 32.9349 190.143 33.1641 190.039 33.3984C189.935 33.6276 189.846 33.8411 189.773 34.0391C189.742 34.1172 189.716 34.1823 189.695 34.2344C189.68 34.2812 189.659 34.3359 189.633 34.3984C189.612 34.4609 189.581 34.5417 189.539 34.6406C189.497 34.7344 189.438 34.8672 189.359 35.0391C189.578 34.7578 189.833 34.4635 190.125 34.1562C190.422 33.849 190.742 33.5495 191.086 33.2578C191.435 32.9609 191.805 32.6797 192.195 32.4141C192.591 32.1484 192.997 31.9167 193.414 31.7188C193.836 31.5156 194.266 31.3568 194.703 31.2422C195.141 31.1224 195.576 31.0625 196.008 31.0625C196.273 31.0625 196.456 31.1198 196.555 31.2344C196.659 31.3438 196.711 31.4948 196.711 31.6875C196.711 31.8438 196.682 32.0339 196.625 32.2578C196.568 32.4818 196.49 32.7266 196.391 32.9922C196.292 33.2526 196.18 33.5339 196.055 33.8359C195.93 34.1328 195.797 34.4349 195.656 34.7422C195.521 35.0443 195.383 35.349 195.242 35.6562C195.107 35.9635 194.979 36.2578 194.859 36.5391C195.156 36.4193 195.466 36.263 195.789 36.0703C196.112 35.8776 196.456 35.6615 196.82 35.4219C197.19 35.1823 197.578 34.9245 197.984 34.6484C198.396 34.3672 198.836 34.0807 199.305 33.7891C199.341 33.7682 199.391 33.7578 199.453 33.7578C199.578 33.7578 199.641 33.8281 199.641 33.9688C199.641 34.0417 199.612 34.1224 199.555 34.2109C199.497 34.2943 199.414 34.3698 199.305 34.4375C198.685 34.8229 198.125 35.1901 197.625 35.5391C197.125 35.888 196.667 36.1979 196.25 36.4688C195.839 36.7396 195.461 36.9531 195.117 37.1094C194.779 37.2708 194.464 37.3516 194.172 37.3516C193.995 37.3516 193.844 37.3281 193.719 37.2812C193.594 37.2396 193.49 37.1823 193.406 37.1094C193.328 37.0365 193.268 36.9505 193.227 36.8516C193.19 36.7474 193.172 36.6406 193.172 36.5312C193.172 36.4115 193.195 36.2943 193.242 36.1797C193.294 36.0599 193.365 35.9323 193.453 35.7969C193.615 35.4427 193.794 35.0729 193.992 34.6875C194.19 34.2969 194.372 33.9271 194.539 33.5781C194.706 33.2292 194.846 32.9193 194.961 32.6484C195.076 32.3776 195.133 32.1823 195.133 32.0625C195.133 31.9792 195.099 31.9375 195.031 31.9375Z" fill="#323232"/>
<path d="M56.8177 55V49.753L54.4867 53.812H54.1177L51.7867 49.753V55H51.1567V48.61H51.8047L54.2977 52.984L56.8087 48.61H57.4477V55H56.8177ZM60.0757 55.09C59.8537 55.09 59.6467 55.054 59.4547 54.982C59.2687 54.904 59.1037 54.799 58.9597 54.667C58.8217 54.535 58.7137 54.382 58.6357 54.208C58.5577 54.028 58.5187 53.836 58.5187 53.632C58.5187 53.428 58.5667 53.239 58.6627 53.065C58.7587 52.891 58.8937 52.741 59.0677 52.615C59.2417 52.489 59.4487 52.393 59.6887 52.327C59.9287 52.255 60.1927 52.219 60.4807 52.219C60.7207 52.219 60.9637 52.24 61.2097 52.282C61.4557 52.324 61.6747 52.384 61.8667 52.462V52.039C61.8667 51.625 61.7497 51.298 61.5157 51.058C61.2817 50.812 60.9577 50.689 60.5437 50.689C60.3037 50.689 60.0577 50.737 59.8057 50.833C59.5537 50.929 59.2987 51.067 59.0407 51.247L58.8247 50.842C59.4307 50.434 60.0187 50.23 60.5887 50.23C61.1767 50.23 61.6387 50.395 61.9747 50.725C62.3107 51.055 62.4787 51.511 62.4787 52.093V54.208C62.4787 54.376 62.5537 54.46 62.7037 54.46V55C62.6017 55.018 62.5237 55.027 62.4697 55.027C62.3137 55.027 62.1907 54.988 62.1007 54.91C62.0167 54.832 61.9717 54.724 61.9657 54.586L61.9477 54.217C61.7317 54.499 61.4587 54.715 61.1287 54.865C60.8047 55.015 60.4537 55.09 60.0757 55.09ZM60.2197 54.622C60.5377 54.622 60.8287 54.562 61.0927 54.442C61.3627 54.322 61.5667 54.163 61.7047 53.965C61.7587 53.911 61.7977 53.854 61.8217 53.794C61.8517 53.728 61.8667 53.668 61.8667 53.614V52.849C61.6627 52.771 61.4497 52.711 61.2277 52.669C61.0117 52.627 60.7897 52.606 60.5617 52.606C60.1297 52.606 59.7787 52.696 59.5087 52.876C59.2387 53.056 59.1037 53.293 59.1037 53.587C59.1037 53.731 59.1307 53.866 59.1847 53.992C59.2447 54.118 59.3227 54.229 59.4187 54.325C59.5207 54.415 59.6407 54.487 59.7787 54.541C59.9167 54.595 60.0637 54.622 60.2197 54.622ZM66.6808 50.779H64.4218V55H63.8188V50.311H66.6808V50.779ZM68.6186 55.09C68.3966 55.09 68.1896 55.054 67.9976 54.982C67.8116 54.904 67.6466 54.799 67.5026 54.667C67.3646 54.535 67.2566 54.382 67.1786 54.208C67.1006 54.028 67.0616 53.836 67.0616 53.632C67.0616 53.428 67.1096 53.239 67.2056 53.065C67.3016 52.891 67.4366 52.741 67.6106 52.615C67.7846 52.489 67.9916 52.393 68.2316 52.327C68.4716 52.255 68.7356 52.219 69.0236 52.219C69.2636 52.219 69.5066 52.24 69.7526 52.282C69.9986 52.324 70.2176 52.384 70.4096 52.462V52.039C70.4096 51.625 70.2926 51.298 70.0586 51.058C69.8246 50.812 69.5006 50.689 69.0866 50.689C68.8466 50.689 68.6006 50.737 68.3486 50.833C68.0966 50.929 67.8416 51.067 67.5836 51.247L67.3676 50.842C67.9736 50.434 68.5616 50.23 69.1316 50.23C69.7196 50.23 70.1816 50.395 70.5176 50.725C70.8536 51.055 71.0216 51.511 71.0216 52.093V54.208C71.0216 54.376 71.0966 54.46 71.2466 54.46V55C71.1446 55.018 71.0666 55.027 71.0126 55.027C70.8566 55.027 70.7336 54.988 70.6436 54.91C70.5596 54.832 70.5146 54.724 70.5086 54.586L70.4906 54.217C70.2746 54.499 70.0016 54.715 69.6716 54.865C69.3476 55.015 68.9966 55.09 68.6186 55.09ZM68.7626 54.622C69.0806 54.622 69.3716 54.562 69.6356 54.442C69.9056 54.322 70.1096 54.163 70.2476 53.965C70.3016 53.911 70.3406 53.854 70.3646 53.794C70.3946 53.728 70.4096 53.668 70.4096 53.614V52.849C70.2056 52.771 69.9926 52.711 69.7706 52.669C69.5546 52.627 69.3326 52.606 69.1046 52.606C68.6726 52.606 68.3216 52.696 68.0516 52.876C67.7816 53.056 67.6466 53.293 67.6466 53.587C67.6466 53.731 67.6736 53.866 67.7276 53.992C67.7876 54.118 67.8656 54.229 67.9616 54.325C68.0636 54.415 68.1836 54.487 68.3216 54.541C68.4596 54.595 68.6066 54.622 68.7626 54.622ZM72.0917 50.806C72.2597 50.614 72.4547 50.47 72.6767 50.374C72.9047 50.278 73.1507 50.23 73.4147 50.23C73.8287 50.23 74.1557 50.332 74.3957 50.536C74.6357 50.74 74.7557 51.013 74.7557 51.355C74.7557 51.631 74.6807 51.862 74.5307 52.048C74.3867 52.234 74.1887 52.348 73.9367 52.39C74.2727 52.438 74.5367 52.576 74.7287 52.804C74.9207 53.026 75.0167 53.305 75.0167 53.641C75.0167 53.857 74.9777 54.055 74.8997 54.235C74.8217 54.409 74.7107 54.559 74.5667 54.685C74.4227 54.811 74.2487 54.91 74.0447 54.982C73.8407 55.054 73.6157 55.09 73.3697 55.09C73.0457 55.09 72.7697 55.033 72.5417 54.919C72.3137 54.799 72.1127 54.628 71.9387 54.406L72.2807 53.983C72.4187 54.175 72.5747 54.319 72.7487 54.415C72.9287 54.505 73.1447 54.55 73.3967 54.55C73.7267 54.55 73.9787 54.469 74.1527 54.307C74.3327 54.139 74.4227 53.914 74.4227 53.632C74.4227 53.32 74.3147 53.08 74.0987 52.912C73.8827 52.744 73.5737 52.66 73.1717 52.66H72.8567V52.183H73.1717C73.4897 52.183 73.7387 52.117 73.9187 51.985C74.0987 51.847 74.1887 51.652 74.1887 51.4C74.1887 51.19 74.1167 51.025 73.9727 50.905C73.8287 50.785 73.6307 50.725 73.3787 50.725C73.1987 50.725 73.0277 50.758 72.8657 50.824C72.7097 50.89 72.5537 51.001 72.3977 51.157L72.0917 50.806ZM76.6474 54.136L79.4464 50.311H79.9414V55H79.3384V51.247L76.5934 55H76.0444V50.311H76.6474V54.136ZM81.9208 52.336H84.5488V50.311H85.1518V55H84.5488V52.849H81.9208V55H81.3178V50.311H81.9208V52.336ZM89.4179 52.336H92.0459V50.311H92.6489V55H92.0459V52.849H89.4179V55H88.8149V50.311H89.4179V52.336ZM95.188 55.09C94.966 55.09 94.759 55.054 94.567 54.982C94.381 54.904 94.216 54.799 94.072 54.667C93.934 54.535 93.826 54.382 93.748 54.208C93.67 54.028 93.631 53.836 93.631 53.632C93.631 53.428 93.679 53.239 93.775 53.065C93.871 52.891 94.006 52.741 94.18 52.615C94.354 52.489 94.561 52.393 94.801 52.327C95.041 52.255 95.305 52.219 95.593 52.219C95.833 52.219 96.076 52.24 96.322 52.282C96.568 52.324 96.787 52.384 96.979 52.462V52.039C96.979 51.625 96.862 51.298 96.628 51.058C96.394 50.812 96.07 50.689 95.656 50.689C95.416 50.689 95.17 50.737 94.918 50.833C94.666 50.929 94.411 51.067 94.153 51.247L93.937 50.842C94.543 50.434 95.131 50.23 95.701 50.23C96.289 50.23 96.751 50.395 97.087 50.725C97.423 51.055 97.591 51.511 97.591 52.093V54.208C97.591 54.376 97.666 54.46 97.816 54.46V55C97.714 55.018 97.636 55.027 97.582 55.027C97.426 55.027 97.303 54.988 97.213 54.91C97.129 54.832 97.084 54.724 97.078 54.586L97.06 54.217C96.844 54.499 96.571 54.715 96.241 54.865C95.917 55.015 95.566 55.09 95.188 55.09ZM95.332 54.622C95.65 54.622 95.941 54.562 96.205 54.442C96.475 54.322 96.679 54.163 96.817 53.965C96.871 53.911 96.91 53.854 96.934 53.794C96.964 53.728 96.979 53.668 96.979 53.614V52.849C96.775 52.771 96.562 52.711 96.34 52.669C96.124 52.627 95.902 52.606 95.674 52.606C95.242 52.606 94.891 52.696 94.621 52.876C94.351 53.056 94.216 53.293 94.216 53.587C94.216 53.731 94.243 53.866 94.297 53.992C94.357 54.118 94.435 54.229 94.531 54.325C94.633 54.415 94.753 54.487 94.891 54.541C95.029 54.595 95.176 54.622 95.332 54.622ZM100.545 55H99.9512V50.842H98.3042V50.311H102.192V50.842H100.545V55ZM103.053 56.242C103.143 56.326 103.233 56.383 103.323 56.413C103.413 56.443 103.509 56.458 103.611 56.458C103.689 56.458 103.764 56.434 103.836 56.386C103.914 56.344 103.989 56.266 104.061 56.152C104.139 56.044 104.217 55.897 104.295 55.711C104.373 55.525 104.46 55.288 104.556 55L102.513 50.311H103.143L104.88 54.433L106.491 50.311H107.076L104.889 55.774C104.799 56.008 104.706 56.203 104.61 56.359C104.52 56.515 104.424 56.641 104.322 56.737C104.226 56.833 104.121 56.899 104.007 56.935C103.899 56.977 103.779 56.998 103.647 56.998C103.377 56.998 103.17 56.926 103.026 56.782L103.053 56.242ZM110.334 55.09C109.938 55.09 109.587 54.991 109.281 54.793C108.981 54.589 108.738 54.334 108.552 54.028V56.917H107.94V50.311H108.489V51.22C108.681 50.926 108.93 50.689 109.236 50.509C109.542 50.323 109.875 50.23 110.235 50.23C110.559 50.23 110.856 50.299 111.126 50.437C111.396 50.569 111.63 50.749 111.828 50.977C112.026 51.199 112.179 51.457 112.287 51.751C112.401 52.045 112.458 52.348 112.458 52.66C112.458 52.99 112.407 53.302 112.305 53.596C112.203 53.89 112.056 54.148 111.864 54.37C111.678 54.592 111.453 54.769 111.189 54.901C110.931 55.027 110.646 55.09 110.334 55.09ZM110.163 54.55C110.415 54.55 110.643 54.496 110.847 54.388C111.057 54.28 111.234 54.139 111.378 53.965C111.528 53.785 111.642 53.584 111.72 53.362C111.798 53.134 111.837 52.9 111.837 52.66C111.837 52.408 111.792 52.168 111.702 51.94C111.612 51.712 111.489 51.511 111.333 51.337C111.177 51.163 110.991 51.025 110.775 50.923C110.565 50.821 110.337 50.77 110.091 50.77C109.935 50.77 109.77 50.803 109.596 50.869C109.428 50.929 109.269 51.013 109.119 51.121C108.975 51.223 108.849 51.346 108.741 51.49C108.639 51.628 108.576 51.775 108.552 51.931V53.371C108.624 53.539 108.714 53.695 108.822 53.839C108.936 53.983 109.062 54.109 109.2 54.217C109.344 54.319 109.497 54.4 109.659 54.46C109.821 54.52 109.989 54.55 110.163 54.55ZM114.682 55.09C114.46 55.09 114.253 55.054 114.061 54.982C113.875 54.904 113.71 54.799 113.566 54.667C113.428 54.535 113.32 54.382 113.242 54.208C113.164 54.028 113.125 53.836 113.125 53.632C113.125 53.428 113.173 53.239 113.269 53.065C113.365 52.891 113.5 52.741 113.674 52.615C113.848 52.489 114.055 52.393 114.295 52.327C114.535 52.255 114.799 52.219 115.087 52.219C115.327 52.219 115.57 52.24 115.816 52.282C116.062 52.324 116.281 52.384 116.473 52.462V52.039C116.473 51.625 116.356 51.298 116.122 51.058C115.888 50.812 115.564 50.689 115.15 50.689C114.91 50.689 114.664 50.737 114.412 50.833C114.16 50.929 113.905 51.067 113.647 51.247L113.431 50.842C114.037 50.434 114.625 50.23 115.195 50.23C115.783 50.23 116.245 50.395 116.581 50.725C116.917 51.055 117.085 51.511 117.085 52.093V54.208C117.085 54.376 117.16 54.46 117.31 54.46V55C117.208 55.018 117.13 55.027 117.076 55.027C116.92 55.027 116.797 54.988 116.707 54.91C116.623 54.832 116.578 54.724 116.572 54.586L116.554 54.217C116.338 54.499 116.065 54.715 115.735 54.865C115.411 55.015 115.06 55.09 114.682 55.09ZM114.826 54.622C115.144 54.622 115.435 54.562 115.699 54.442C115.969 54.322 116.173 54.163 116.311 53.965C116.365 53.911 116.404 53.854 116.428 53.794C116.458 53.728 116.473 53.668 116.473 53.614V52.849C116.269 52.771 116.056 52.711 115.834 52.669C115.618 52.627 115.396 52.606 115.168 52.606C114.736 52.606 114.385 52.696 114.115 52.876C113.845 53.056 113.71 53.293 113.71 53.587C113.71 53.731 113.737 53.866 113.791 53.992C113.851 54.118 113.929 54.229 114.025 54.325C114.127 54.415 114.247 54.487 114.385 54.541C114.523 54.595 114.67 54.622 114.826 54.622ZM117.795 54.487C117.963 54.475 118.11 54.43 118.236 54.352C118.362 54.268 118.47 54.121 118.56 53.911C118.656 53.695 118.737 53.401 118.803 53.029C118.875 52.657 118.944 52.174 119.01 51.58L119.145 50.311H121.899V55H121.296V50.797H119.712L119.586 51.841C119.508 52.465 119.421 52.981 119.325 53.389C119.229 53.791 119.115 54.115 118.983 54.361C118.857 54.601 118.704 54.772 118.524 54.874C118.344 54.97 118.134 55.024 117.894 55.036L117.795 54.487ZM123.268 50.311H123.871V51.976H124.888C125.104 51.976 125.308 52.009 125.5 52.075C125.692 52.141 125.86 52.237 126.004 52.363C126.148 52.489 126.262 52.648 126.346 52.84C126.43 53.026 126.472 53.242 126.472 53.488C126.472 53.734 126.43 53.953 126.346 54.145C126.262 54.331 126.148 54.487 126.004 54.613C125.86 54.739 125.692 54.835 125.5 54.901C125.308 54.967 125.104 55 124.888 55H123.268V50.311ZM124.888 54.478C125.2 54.478 125.44 54.391 125.608 54.217C125.782 54.037 125.869 53.794 125.869 53.488C125.869 53.182 125.782 52.942 125.608 52.768C125.434 52.588 125.194 52.498 124.888 52.498H123.871V54.478H124.888ZM128.019 52.336H130.647V50.311H131.25V55H130.647V52.849H128.019V55H127.416V50.311H128.019V52.336ZM134.609 55.09C134.267 55.09 133.955 55.027 133.673 54.901C133.391 54.769 133.145 54.592 132.935 54.37C132.731 54.148 132.572 53.89 132.458 53.596C132.344 53.302 132.287 52.993 132.287 52.669C132.287 52.339 132.344 52.027 132.458 51.733C132.578 51.439 132.74 51.181 132.944 50.959C133.154 50.737 133.4 50.56 133.682 50.428C133.964 50.296 134.273 50.23 134.609 50.23C134.945 50.23 135.254 50.296 135.536 50.428C135.824 50.56 136.07 50.737 136.274 50.959C136.484 51.181 136.646 51.439 136.76 51.733C136.88 52.027 136.94 52.339 136.94 52.669C136.94 52.993 136.883 53.302 136.769 53.596C136.655 53.89 136.493 54.148 136.283 54.37C136.079 54.592 135.833 54.769 135.545 54.901C135.263 55.027 134.951 55.09 134.609 55.09ZM132.908 52.678C132.908 52.942 132.953 53.188 133.043 53.416C133.133 53.638 133.253 53.836 133.403 54.01C133.559 54.178 133.739 54.31 133.943 54.406C134.153 54.502 134.375 54.55 134.609 54.55C134.843 54.55 135.062 54.502 135.266 54.406C135.476 54.304 135.659 54.169 135.815 54.001C135.971 53.827 136.094 53.626 136.184 53.398C136.274 53.17 136.319 52.924 136.319 52.66C136.319 52.402 136.274 52.159 136.184 51.931C136.094 51.697 135.971 51.496 135.815 51.328C135.659 51.154 135.476 51.019 135.266 50.923C135.062 50.821 134.843 50.77 134.609 50.77C134.375 50.77 134.156 50.821 133.952 50.923C133.748 51.019 133.568 51.154 133.412 51.328C133.256 51.502 133.133 51.706 133.043 51.94C132.953 52.168 132.908 52.414 132.908 52.678ZM141.239 48.556C141.227 48.838 141.11 49.054 140.888 49.204C140.672 49.348 140.372 49.42 139.988 49.42C139.598 49.42 139.295 49.348 139.079 49.204C138.863 49.054 138.746 48.838 138.728 48.556H139.115C139.127 48.76 139.205 48.904 139.349 48.988C139.493 49.066 139.706 49.105 139.988 49.105C140.27 49.105 140.48 49.066 140.618 48.988C140.762 48.91 140.843 48.766 140.861 48.556H141.239ZM138.575 54.136L141.374 50.311H141.869V55H141.266V51.247L138.521 55H137.972V50.311H138.575V54.136ZM148.303 50.311H148.987L147.214 52.579L149.14 55H148.456L146.8 52.858H146.134V55H145.531V50.311H146.134V52.381H146.746L148.303 50.311ZM151.703 55.09C151.361 55.09 151.049 55.027 150.767 54.901C150.485 54.769 150.239 54.592 150.029 54.37C149.825 54.148 149.666 53.89 149.552 53.596C149.438 53.302 149.381 52.993 149.381 52.669C149.381 52.339 149.438 52.027 149.552 51.733C149.672 51.439 149.834 51.181 150.038 50.959C150.248 50.737 150.494 50.56 150.776 50.428C151.058 50.296 151.367 50.23 151.703 50.23C152.039 50.23 152.348 50.296 152.63 50.428C152.918 50.56 153.164 50.737 153.368 50.959C153.578 51.181 153.74 51.439 153.854 51.733C153.974 52.027 154.034 52.339 154.034 52.669C154.034 52.993 153.977 53.302 153.863 53.596C153.749 53.89 153.587 54.148 153.377 54.37C153.173 54.592 152.927 54.769 152.639 54.901C152.357 55.027 152.045 55.09 151.703 55.09ZM150.002 52.678C150.002 52.942 150.047 53.188 150.137 53.416C150.227 53.638 150.347 53.836 150.497 54.01C150.653 54.178 150.833 54.31 151.037 54.406C151.247 54.502 151.469 54.55 151.703 54.55C151.937 54.55 152.156 54.502 152.36 54.406C152.57 54.304 152.753 54.169 152.909 54.001C153.065 53.827 153.188 53.626 153.278 53.398C153.368 53.17 153.413 52.924 153.413 52.66C153.413 52.402 153.368 52.159 153.278 51.931C153.188 51.697 153.065 51.496 152.909 51.328C152.753 51.154 152.57 51.019 152.36 50.923C152.156 50.821 151.937 50.77 151.703 50.77C151.469 50.77 151.25 50.821 151.046 50.923C150.842 51.019 150.662 51.154 150.506 51.328C150.35 51.502 150.227 51.706 150.137 51.94C150.047 52.168 150.002 52.414 150.002 52.678ZM154.734 52.642C154.734 52.312 154.791 52 154.905 51.706C155.019 51.412 155.178 51.157 155.382 50.941C155.592 50.719 155.841 50.545 156.129 50.419C156.417 50.293 156.735 50.23 157.083 50.23C157.527 50.23 157.914 50.332 158.244 50.536C158.574 50.734 158.823 51.004 158.991 51.346L158.397 51.535C158.265 51.295 158.079 51.109 157.839 50.977C157.605 50.839 157.344 50.77 157.056 50.77C156.816 50.77 156.591 50.818 156.381 50.914C156.177 51.01 155.997 51.142 155.841 51.31C155.691 51.472 155.571 51.667 155.481 51.895C155.397 52.123 155.355 52.372 155.355 52.642C155.355 52.906 155.4 53.155 155.49 53.389C155.58 53.623 155.703 53.827 155.859 54.001C156.015 54.169 156.195 54.304 156.399 54.406C156.609 54.502 156.831 54.55 157.065 54.55C157.215 54.55 157.362 54.529 157.506 54.487C157.656 54.445 157.794 54.388 157.92 54.316C158.046 54.238 158.154 54.151 158.244 54.055C158.334 53.959 158.397 53.857 158.433 53.749L159.036 53.929C158.97 54.097 158.874 54.253 158.748 54.397C158.622 54.535 158.472 54.658 158.298 54.766C158.13 54.868 157.941 54.946 157.731 55C157.527 55.06 157.314 55.09 157.092 55.09C156.75 55.09 156.435 55.027 156.147 54.901C155.859 54.769 155.61 54.592 155.4 54.37C155.19 54.142 155.025 53.881 154.905 53.587C154.791 53.293 154.734 52.978 154.734 52.642ZM162.373 53.47L164.128 50.311H164.722V55H164.128V51.4L162.553 54.217H162.193L160.609 51.4V55H160.006V50.311H160.618L162.373 53.47ZM168.104 55.09C167.762 55.09 167.447 55.027 167.159 54.901C166.877 54.769 166.631 54.592 166.421 54.37C166.211 54.142 166.046 53.881 165.926 53.587C165.812 53.293 165.755 52.978 165.755 52.642C165.755 52.312 165.812 52.003 165.926 51.715C166.046 51.421 166.208 51.166 166.412 50.95C166.622 50.728 166.871 50.554 167.159 50.428C167.447 50.296 167.759 50.23 168.095 50.23C168.437 50.23 168.749 50.296 169.031 50.428C169.319 50.554 169.565 50.728 169.769 50.95C169.973 51.172 170.132 51.427 170.246 51.715C170.36 52.003 170.417 52.309 170.417 52.633C170.417 52.681 170.417 52.729 170.417 52.777C170.417 52.825 170.414 52.858 170.408 52.876H166.394C166.412 53.128 166.469 53.362 166.565 53.578C166.667 53.788 166.796 53.971 166.952 54.127C167.108 54.283 167.285 54.406 167.483 54.496C167.687 54.58 167.903 54.622 168.131 54.622C168.281 54.622 168.431 54.601 168.581 54.559C168.731 54.517 168.869 54.46 168.995 54.388C169.121 54.316 169.235 54.229 169.337 54.127C169.439 54.019 169.517 53.902 169.571 53.776L170.102 53.92C170.03 54.094 169.928 54.253 169.796 54.397C169.664 54.535 169.511 54.658 169.337 54.766C169.163 54.868 168.971 54.946 168.761 55C168.551 55.06 168.332 55.09 168.104 55.09ZM169.832 52.408C169.814 52.156 169.754 51.928 169.652 51.724C169.556 51.514 169.43 51.334 169.274 51.184C169.124 51.034 168.947 50.917 168.743 50.833C168.545 50.749 168.332 50.707 168.104 50.707C167.876 50.707 167.66 50.749 167.456 50.833C167.252 50.917 167.072 51.034 166.916 51.184C166.766 51.334 166.643 51.514 166.547 51.724C166.457 51.934 166.403 52.162 166.385 52.408H169.832ZM172.914 55H172.32V50.842H170.673V50.311H174.561V50.842H172.914V55ZM176.034 54.136L178.833 50.311H179.328V55H178.725V51.247L175.98 55H175.431V50.311H176.034V54.136ZM183.477 50.311H184.161L182.388 52.579L184.314 55H183.63L181.974 52.858H181.308V55H180.705V50.311H181.308V52.381H181.92L183.477 50.311ZM185.667 54.136L188.466 50.311H188.961V55H188.358V51.247L185.613 55H185.064V50.311H185.667V54.136Z" fill="#323232"/>
<g filter="url(#filter0_d)">
<rect x="4" y="4" width="224.929" height="65" stroke="#CDBD85" stroke-width="2"/>
</g>
<g filter="url(#filter1_d)">
<rect x="10.8766" y="11" width="224.929" height="66" stroke="#323232" stroke-width="2"/>
</g>
<defs>
<filter id="filter0_d" x="0" y="0" width="232.929" height="73" filterUnits="userSpaceOnUse" color-interpolation-filters="sRGB">
<feFlood flood-opacity="0" result="BackgroundImageFix"/>
<feColorMatrix in="SourceAlpha" type="matrix" values="0 0 0 0 0 0 0 0 0 0 0 0 0 0 0 0 0 0 127 0"/>
<feOffset/>
<feGaussianBlur stdDeviation="1.5"/>
<feColorMatrix type="matrix" values="0 0 0 0 0 0 0 0 0 0 0 0 0 0 0 0 0 0 0.25 0"/>
<feBlend mode="normal" in2="BackgroundImageFix" result="effect1_dropShadow"/>
<feBlend mode="normal" in="SourceGraphic" in2="effect1_dropShadow" result="shape"/>
</filter>
<filter id="filter1_d" x="6.87659" y="7" width="232.929" height="74" filterUnits="userSpaceOnUse" color-interpolation-filters="sRGB">
<feFlood flood-opacity="0" result="BackgroundImageFix"/>
<feColorMatrix in="SourceAlpha" type="matrix" values="0 0 0 0 0 0 0 0 0 0 0 0 0 0 0 0 0 0 127 0"/>
<feOffset/>
<feGaussianBlur stdDeviation="1.5"/>
<feColorMatrix type="matrix" values="0 0 0 0 0 0 0 0 0 0 0 0 0 0 0 0 0 0 0.25 0"/>
<feBlend mode="normal" in2="BackgroundImageFix" result="effect1_dropShadow"/>
<feBlend mode="normal" in="SourceGraphic" in2="effect1_dropShadow" result="shape"/>
</filter>
</defs>
</svg>
