<svg width="24" height="25" viewBox="0 0 24 25" fill="none" xmlns="http://www.w3.org/2000/svg">
<path d="M10.9125 1.75C6.33591 1.75 2.63 5.62529 2.63 10.3672C2.63 15.1094 6.33591 18.9844 10.9125 18.9844C15.4894 18.9844 19.195 15.1094 19.195 10.3672C19.195 5.6253 15.4894 1.75 10.9125 1.75ZM10.9125 16.9397C7.44869 16.9397 4.61292 14.0008 4.61292 10.3672C4.61292 6.7337 7.44869 3.79471 10.9125 3.79471C14.3763 3.79471 17.2121 6.73366 17.2121 10.3672C17.2121 14.0007 14.3763 16.9397 10.9125 16.9397Z" fill="white" stroke="white" stroke-width="0.5"/>
<path d="M16.8321 15.0803L21.0831 19.5084C21.4657 19.9066 21.4657 20.5487 21.0831 20.9469C20.8903 21.1476 20.6351 21.25 20.3786 21.25C20.1218 21.25 19.8667 21.1476 19.674 20.9468L15.423 16.5187C15.423 16.5187 15.4229 16.5187 15.4229 16.5186C15.0404 16.1204 15.0404 15.4785 15.4229 15.0803L16.8321 15.0803ZM16.8321 15.0803C16.444 14.6761 15.8111 14.676 15.423 15.0802L16.8321 15.0803Z" fill="white" stroke="white" stroke-width="0.5"/>
</svg>
