<svg width="29" height="35" viewBox="0 0 29 35" fill="none" xmlns="http://www.w3.org/2000/svg">
<path d="M28.9946 33.8496L26.4479 8.51742C26.3945 7.9871 25.9666 7.58442 25.4561 7.58442H20.6696V6.44447C20.6696 2.89112 17.9018 0 14.5001 0C11.0981 0 8.33039 2.89112 8.33039 6.44447V7.58442H3.5439C3.0334 7.58442 2.60547 7.9871 2.55204 8.51742L0.00541432 33.8496C-0.0239836 34.1431 0.0672778 34.436 0.256191 34.6555C0.445361 34.8748 0.714799 35 0.997275 35H28.0025C28.2852 35 28.5546 34.8748 28.7435 34.6555C28.933 34.436 29.024 34.1431 28.9946 33.8496ZM10.3249 6.44447C10.3249 4.03988 12.1979 2.08336 14.5001 2.08336C16.8021 2.08336 18.6751 4.03988 18.6751 6.44447V7.58442H10.3249V6.44447ZM2.10468 32.9166L4.44194 9.66778H8.33039V11.9634C8.33039 12.5386 8.77699 13.0051 9.32762 13.0051C9.87826 13.0051 10.3249 12.5386 10.3249 11.9634V9.66778H18.6751V11.9634C18.6751 12.5386 19.1217 13.0051 19.6724 13.0051C20.223 13.0051 20.6696 12.5386 20.6696 11.9634V9.66778H24.558L26.8953 32.9166H2.10468Z" fill="#323232"/>
</svg>
