<svg width="33" height="29" viewBox="0 0 33 29" fill="none" xmlns="http://www.w3.org/2000/svg">
<rect x="1.54924" y="1" width="29.8118" height="26.7241" stroke="white" stroke-width="2"/>
<path d="M15.974 22.1726C19.306 22.1726 18.1179 20.0701 18.3751 19.4655C18.3713 19.014 18.3674 18.5798 18.3828 18.3158C18.5939 18.3751 19.092 18.6266 20.1207 19.6234C21.7089 21.2208 22.1149 22.1726 23.3979 22.1726H25.7596C26.5082 22.1726 26.8978 21.8636 27.0926 21.6044C27.2807 21.3538 27.465 20.9138 27.2634 20.2289C26.7366 18.5798 23.6638 15.7321 23.4728 15.4317C23.5016 15.3763 23.5476 15.3026 23.5716 15.2643H23.5697C24.1762 14.4656 26.4909 11.0086 26.8316 9.62542C26.8325 9.62351 26.8335 9.62064 26.8335 9.61777C27.0178 8.98644 26.8489 8.57703 26.6742 8.34554C26.4113 7.99927 25.9928 7.82422 25.4276 7.82422H23.0659C22.2751 7.82422 21.6754 8.22119 21.3721 8.94531C20.8644 10.2319 19.4384 12.8777 18.3693 13.8142C18.3367 12.4874 18.3588 11.4744 18.3761 10.7216C18.4106 9.25332 18.5219 7.82422 16.9932 7.82422H13.2813C12.3235 7.82422 11.407 8.86687 12.3993 10.1047C13.2669 11.1894 12.7112 11.7939 12.8983 14.8033C12.169 14.0237 10.8716 11.9183 9.95413 9.22749C9.69694 8.49955 9.30732 7.82518 8.21043 7.82518H5.84872C4.89099 7.82518 4.31903 8.34554 4.31903 9.21697C4.31903 11.1741 8.66531 22.1726 15.974 22.1726V22.1726ZM8.21043 9.26001C8.41868 9.26001 8.43979 9.26001 8.59429 9.69716C9.5338 12.4549 11.6412 16.5356 13.1805 16.5356C14.3369 16.5356 14.3369 15.3543 14.3369 14.9095L14.3359 11.3683C14.2726 10.1965 13.8446 9.61298 13.5634 9.25906L16.9299 9.26288C16.9318 9.27915 16.9107 13.18 16.9395 14.1251C16.9395 15.4671 18.0085 16.2362 19.6774 14.5527C21.4383 12.5716 22.6561 9.61012 22.7051 9.48959C22.777 9.31741 22.8394 9.25906 23.0659 9.25906H25.4276H25.4372C25.4362 9.26193 25.4362 9.2648 25.4353 9.26767C25.2194 10.2721 23.088 13.4727 22.3749 14.4666C22.3634 14.4819 22.3529 14.4981 22.3423 14.5144C22.0285 15.0252 21.7732 15.5896 22.3855 16.3835H22.3865C22.4421 16.4505 22.587 16.6073 22.7982 16.8254C23.4546 17.5008 25.7059 19.8099 25.9055 20.7282C25.7731 20.7492 25.6291 20.7339 23.3979 20.7387C22.9229 20.7387 22.5515 20.0309 21.1341 18.6056C19.8597 17.3697 19.0325 16.8647 18.2791 16.8647C16.8166 16.8647 16.9231 18.0479 16.9366 19.4789C16.9414 21.0305 16.9318 20.5398 16.9423 20.6373C16.8569 20.6708 16.6122 20.7378 15.974 20.7378C9.88503 20.7378 5.91974 11.1043 5.76715 9.26288C5.81993 9.2581 6.54639 9.26097 8.21043 9.26001V9.26001Z" fill="white"/>
</svg>
